<svg width="17" height="16" viewBox="0 0 17 16" fill="none" xmlns="http://www.w3.org/2000/svg">
<path d="M14.666 7.16699H9.33268V1.83366C9.33268 1.73366 9.26602 1.66699 9.16602 1.66699H7.83268C7.73268 1.66699 7.66602 1.73366 7.66602 1.83366V7.16699H2.33268C2.23268 7.16699 2.16602 7.23366 2.16602 7.33366V8.66699C2.16602 8.76699 2.23268 8.83366 2.33268 8.83366H7.66602V14.167C7.66602 14.267 7.73268 14.3337 7.83268 14.3337H9.16602C9.26602 14.3337 9.33268 14.267 9.33268 14.167V8.83366H14.666C14.766 8.83366 14.8327 8.76699 14.8327 8.66699V7.33366C14.8327 7.23366 14.766 7.16699 14.666 7.16699Z" fill="currentColor"/>
</svg>
