<svg xmlns="http://www.w3.org/2000/svg" width="24" height="24" viewBox="0 0 24 24" fill="none">
  <mask id="mask0_886_32614" style="mask-type:luminance" maskUnits="userSpaceOnUse" x="0" y="0" width="24" height="24">
    <path d="M24 0H0V24H24V0Z" fill="white"/>
  </mask>
  <g mask="url(#mask0_886_32614)">
    <mask id="path-2-inside-1_886_32614" fill="white">
      <path d="M11.9821 6.12953C8.97413 0.561077 2.10471 2.017 1.28587 7.12316C0.392592 12.6949 6.57633 18.6577 11.98 21.999C17.3858 18.6577 23.7635 12.7212 22.6742 7.12316C21.6886 2.04877 14.9859 0.559982 11.98 6.12844"/>
    </mask>
    <path d="M1.28587 7.12316L0.298484 6.96482L0.298478 6.96485L1.28587 7.12316ZM11.98 21.999L11.4541 22.8496L11.9799 23.1747L12.5058 22.8497L11.98 21.999ZM22.6742 7.12316L21.6925 7.31381L21.6926 7.31417L22.6742 7.12316ZM12.862 5.65426C11.1711 2.5241 8.30793 1.26578 5.67495 1.63295C3.06783 1.99652 0.78119 3.95473 0.298484 6.96482L2.27325 7.2815C2.60939 5.18543 4.16688 3.8626 5.95118 3.61378C7.70962 3.36857 9.78516 4.16651 11.1023 6.60481L12.862 5.65426ZM0.298478 6.96485C-0.21496 10.1674 1.31653 13.3378 3.49449 16.0269C5.6926 18.7408 8.68391 21.1367 11.4541 22.8496L12.5059 21.1485C9.87245 19.5201 7.07005 17.2639 5.04867 14.7681C3.00716 12.2475 1.89342 9.65067 2.27326 7.28146L0.298478 6.96485ZM12.5058 22.8497C15.2708 21.1406 18.3117 18.7531 20.5359 16.0416C22.7386 13.3564 24.2857 10.1691 23.6558 6.93215L21.6926 7.31417C22.152 9.67521 21.055 12.2553 18.9896 14.7732C16.9459 17.2647 14.095 19.5162 11.4543 21.1484L12.5058 22.8497ZM23.6558 6.9325C23.0802 3.96871 20.814 2.01421 18.2261 1.64477C15.6057 1.27069 12.7866 2.529 11.1001 5.65342L12.86 6.60346C14.1793 4.15942 16.2146 3.37789 17.9434 3.6247C19.7047 3.87613 21.2826 5.20322 21.6925 7.31381L23.6558 6.9325Z" fill="#D0D2DA" mask="url(#path-2-inside-1_886_32614)"/>
  </g>
</svg>