<svg width="20" height="20" viewBox="0 0 20 20" fill="none" xmlns="http://www.w3.org/2000/svg">
<path d="M12.5003 18.9577H7.50033C2.97533 18.9577 1.04199 17.0243 1.04199 12.4993V7.49935C1.04199 2.97435 2.97533 1.04102 7.50033 1.04102H12.5003C17.0253 1.04102 18.9587 2.97435 18.9587 7.49935V12.4993C18.9587 17.0243 17.0253 18.9577 12.5003 18.9577ZM7.50033 2.29102C3.65866 2.29102 2.29199 3.65768 2.29199 7.49935V12.4993C2.29199 16.341 3.65866 17.7077 7.50033 17.7077H12.5003C16.342 17.7077 17.7087 16.341 17.7087 12.4993V7.49935C17.7087 3.65768 16.342 2.29102 12.5003 2.29102H7.50033Z" fill="currentColor"/>
<path d="M12.9167 16.0423C11.65 16.0423 10.625 15.0173 10.625 13.7507V6.25065C10.625 4.98398 11.65 3.95898 12.9167 3.95898C14.1833 3.95898 15.2083 4.98398 15.2083 6.25065V13.7507C15.2083 15.0173 14.1833 16.0423 12.9167 16.0423ZM12.9167 5.20898C12.3417 5.20898 11.875 5.67565 11.875 6.25065V13.7507C11.875 14.3257 12.3417 14.7923 12.9167 14.7923C13.4917 14.7923 13.9583 14.3257 13.9583 13.7507V6.25065C13.9583 5.67565 13.4917 5.20898 12.9167 5.20898Z" fill="currentColor"/>
<path d="M7.08366 16.041C5.81699 16.041 4.79199 15.016 4.79199 13.7493V10.8327C4.79199 9.56602 5.81699 8.54102 7.08366 8.54102C8.35033 8.54102 9.37533 9.56602 9.37533 10.8327V13.7493C9.37533 15.016 8.35033 16.041 7.08366 16.041ZM7.08366 9.79102C6.50866 9.79102 6.04199 10.2577 6.04199 10.8327V13.7493C6.04199 14.3243 6.50866 14.791 7.08366 14.791C7.65866 14.791 8.12533 14.3243 8.12533 13.7493V10.8327C8.12533 10.2577 7.65866 9.79102 7.08366 9.79102Z" fill="currentColor"/>
</svg>
