<svg width="10" height="10" viewBox="0 0 10 10" fill="none" xmlns="http://www.w3.org/2000/svg">
    <path d="M5.72925 8.854L5.72925 1.354C5.72925 1.18317 5.87091 1.0415 6.04175 1.0415C6.21258 1.0415 6.35425 1.18317 6.35425 1.354L6.35425 8.854C6.35425 9.02484 6.21258 9.1665 6.04175 9.1665C5.87091 9.1665 5.72925 9.02484 5.72925 8.854Z" fill="white"/>
    <path d="M3.64575 8.854L3.64575 1.354C3.64575 1.18317 3.78742 1.0415 3.95825 1.0415C4.12909 1.0415 4.27075 1.18317 4.27075 1.354L4.27075 8.854C4.27075 9.02484 4.12908 9.1665 3.95825 9.1665C3.78742 9.1665 3.64575 9.02484 3.64575 8.854Z" fill="white"/>
</svg>
