<svg width="14" height="14" viewBox="0 0 14 14" fill="none" xmlns="http://www.w3.org/2000/svg">
<g id="vuesax/outline/calendar">
<g id="calendar">
<path id="Vector" d="M4.66602 3.35547C4.42685 3.35547 4.22852 3.15714 4.22852 2.91797V1.16797C4.22852 0.928802 4.42685 0.730469 4.66602 0.730469C4.90518 0.730469 5.10352 0.928802 5.10352 1.16797V2.91797C5.10352 3.15714 4.90518 3.35547 4.66602 3.35547Z" fill="currentColor"/>
<path id="Vector_2" d="M9.33398 3.35547C9.09482 3.35547 8.89648 3.15714 8.89648 2.91797V1.16797C8.89648 0.928802 9.09482 0.730469 9.33398 0.730469C9.57315 0.730469 9.77148 0.928802 9.77148 1.16797V2.91797C9.77148 3.15714 9.57315 3.35547 9.33398 3.35547Z" fill="currentColor"/>
<path id="Vector_3" d="M4.95833 8.4564C4.8825 8.4564 4.80667 8.43891 4.73667 8.40974C4.66083 8.38057 4.6025 8.33973 4.54417 8.28723C4.43917 8.17639 4.375 8.03057 4.375 7.87307C4.375 7.79723 4.3925 7.7214 4.42167 7.6514C4.45083 7.5814 4.49167 7.51724 4.54417 7.4589C4.6025 7.4064 4.66083 7.36556 4.73667 7.33639C4.94667 7.24889 5.20917 7.29557 5.3725 7.4589C5.4775 7.56974 5.54167 7.7214 5.54167 7.87307C5.54167 7.90807 5.53583 7.94891 5.53 7.98974C5.52417 8.02474 5.5125 8.05974 5.495 8.09474C5.48333 8.12974 5.46583 8.16473 5.4425 8.19973C5.425 8.2289 5.39583 8.25806 5.3725 8.28723C5.26167 8.39223 5.11 8.4564 4.95833 8.4564Z" fill="currentColor"/>
<path id="Vector_4" d="M6.99935 8.45899C6.92352 8.45899 6.84768 8.4415 6.77768 8.41233C6.70185 8.38317 6.64352 8.34232 6.58518 8.28982C6.48018 8.17899 6.41602 8.03316 6.41602 7.87566C6.41602 7.79982 6.43352 7.72399 6.46268 7.65399C6.49185 7.58399 6.53268 7.51983 6.58518 7.4615C6.64352 7.409 6.70185 7.36815 6.77768 7.33898C6.98768 7.24565 7.25018 7.29816 7.41352 7.4615C7.51852 7.57233 7.58268 7.72399 7.58268 7.87566C7.58268 7.91066 7.57685 7.9515 7.57102 7.99233C7.56518 8.02733 7.55351 8.06233 7.53601 8.09733C7.52435 8.13233 7.50685 8.16732 7.48352 8.20232C7.46602 8.23149 7.43685 8.26065 7.41352 8.28982C7.30268 8.39482 7.15102 8.45899 6.99935 8.45899Z" fill="currentColor"/>
<path id="Vector_5" d="M9.04232 8.45899C8.96648 8.45899 8.89065 8.4415 8.82065 8.41233C8.74482 8.38317 8.68648 8.34232 8.62815 8.28982C8.60482 8.26065 8.58148 8.23149 8.55815 8.20232C8.53482 8.16732 8.51732 8.13233 8.50565 8.09733C8.48815 8.06233 8.47648 8.02733 8.47065 7.99233C8.46482 7.9515 8.45898 7.91066 8.45898 7.87566C8.45898 7.72399 8.52315 7.57233 8.62815 7.4615C8.68648 7.409 8.74482 7.36815 8.82065 7.33898C9.03648 7.24565 9.29315 7.29816 9.45648 7.4615C9.56148 7.57233 9.62565 7.72399 9.62565 7.87566C9.62565 7.91066 9.61982 7.9515 9.61398 7.99233C9.60815 8.02733 9.59648 8.06233 9.57898 8.09733C9.56732 8.13233 9.54982 8.16732 9.52649 8.20232C9.50899 8.23149 9.47982 8.26065 9.45648 8.28982C9.34565 8.39482 9.19398 8.45899 9.04232 8.45899Z" fill="currentColor"/>
<path id="Vector_6" d="M4.95833 10.4992C4.8825 10.4992 4.80667 10.4817 4.73667 10.4526C4.66667 10.4234 4.6025 10.3825 4.54417 10.33C4.43917 10.2192 4.375 10.0675 4.375 9.91588C4.375 9.84005 4.3925 9.76421 4.42167 9.69421C4.45083 9.61838 4.49167 9.55422 4.54417 9.50172C4.76 9.28589 5.15667 9.28589 5.3725 9.50172C5.4775 9.61255 5.54167 9.76421 5.54167 9.91588C5.54167 10.0675 5.4775 10.2192 5.3725 10.33C5.26167 10.435 5.11 10.4992 4.95833 10.4992Z" fill="currentColor"/>
<path id="Vector_7" d="M6.99935 10.4992C6.84768 10.4992 6.69602 10.435 6.58518 10.33C6.48018 10.2192 6.41602 10.0675 6.41602 9.91588C6.41602 9.84005 6.43352 9.76421 6.46268 9.69421C6.49185 9.61838 6.53268 9.55422 6.58518 9.50172C6.80102 9.28589 7.19768 9.28589 7.41352 9.50172C7.46602 9.55422 7.50685 9.61838 7.53601 9.69421C7.56518 9.76421 7.58268 9.84005 7.58268 9.91588C7.58268 10.0675 7.51852 10.2192 7.41352 10.33C7.30268 10.435 7.15102 10.4992 6.99935 10.4992Z" fill="currentColor"/>
<path id="Vector_8" d="M9.04232 10.4992C8.89065 10.4992 8.73898 10.435 8.62815 10.33C8.57565 10.2775 8.53482 10.2134 8.50565 10.1376C8.47649 10.0676 8.45898 9.99172 8.45898 9.91588C8.45898 9.84005 8.47649 9.76421 8.50565 9.69421C8.53482 9.61838 8.57565 9.55422 8.62815 9.50172C8.76232 9.36756 8.96648 9.30338 9.15315 9.34421C9.19398 9.35004 9.22899 9.36171 9.26399 9.37921C9.29899 9.39088 9.33399 9.40839 9.36899 9.43172C9.39815 9.44922 9.42732 9.47839 9.45648 9.50172C9.56148 9.61256 9.62565 9.76422 9.62565 9.91588C9.62565 10.0675 9.56148 10.2192 9.45648 10.33C9.34565 10.435 9.19398 10.4992 9.04232 10.4992Z" fill="currentColor"/>
<path id="Vector_9" d="M11.9577 5.73828H2.04102C1.80185 5.73828 1.60352 5.53995 1.60352 5.30078C1.60352 5.06161 1.80185 4.86328 2.04102 4.86328H11.9577C12.1968 4.86328 12.3952 5.06161 12.3952 5.30078C12.3952 5.53995 12.1968 5.73828 11.9577 5.73828Z" fill="currentColor"/>
<path id="Vector_10" d="M9.33333 13.2721H4.66667C2.5375 13.2721 1.3125 12.0471 1.3125 9.91797V4.95964C1.3125 2.83047 2.5375 1.60547 4.66667 1.60547H9.33333C11.4625 1.60547 12.6875 2.83047 12.6875 4.95964V9.91797C12.6875 12.0471 11.4625 13.2721 9.33333 13.2721ZM4.66667 2.48047C2.99833 2.48047 2.1875 3.2913 2.1875 4.95964V9.91797C2.1875 11.5863 2.99833 12.3971 4.66667 12.3971H9.33333C11.0017 12.3971 11.8125 11.5863 11.8125 9.91797V4.95964C11.8125 3.2913 11.0017 2.48047 9.33333 2.48047H4.66667Z" fill="currentColor"/>
</g>
</g>
</svg>
