<svg width="14" height="14" viewBox="0 0 14 14" fill="none" xmlns="http://www.w3.org/2000/svg">
<g id="vuesax/outline/category">
<g id="category">
<path id="Vector" d="M4.08268 6.27214H2.91602C1.50435 6.27214 0.728516 5.4963 0.728516 4.08464V2.91797C0.728516 1.5063 1.50435 0.730469 2.91602 0.730469H4.08268C5.49435 0.730469 6.27018 1.5063 6.27018 2.91797V4.08464C6.27018 5.4963 5.49435 6.27214 4.08268 6.27214ZM2.91602 1.60547C1.99435 1.60547 1.60352 1.9963 1.60352 2.91797V4.08464C1.60352 5.0063 1.99435 5.39714 2.91602 5.39714H4.08268C5.00435 5.39714 5.39518 5.0063 5.39518 4.08464V2.91797C5.39518 1.9963 5.00435 1.60547 4.08268 1.60547H2.91602Z" fill="currentColor"/>
<path id="Vector_2" d="M11.0827 6.27214H9.91602C8.50435 6.27214 7.72852 5.4963 7.72852 4.08464V2.91797C7.72852 1.5063 8.50435 0.730469 9.91602 0.730469H11.0827C12.4943 0.730469 13.2702 1.5063 13.2702 2.91797V4.08464C13.2702 5.4963 12.4943 6.27214 11.0827 6.27214ZM9.91602 1.60547C8.99435 1.60547 8.60352 1.9963 8.60352 2.91797V4.08464C8.60352 5.0063 8.99435 5.39714 9.91602 5.39714H11.0827C12.0043 5.39714 12.3952 5.0063 12.3952 4.08464V2.91797C12.3952 1.9963 12.0043 1.60547 11.0827 1.60547H9.91602Z" fill="currentColor"/>
<path id="Vector_3" d="M11.0827 13.2721H9.91602C8.50435 13.2721 7.72852 12.4963 7.72852 11.0846V9.91797C7.72852 8.5063 8.50435 7.73047 9.91602 7.73047H11.0827C12.4943 7.73047 13.2702 8.5063 13.2702 9.91797V11.0846C13.2702 12.4963 12.4943 13.2721 11.0827 13.2721ZM9.91602 8.60547C8.99435 8.60547 8.60352 8.9963 8.60352 9.91797V11.0846C8.60352 12.0063 8.99435 12.3971 9.91602 12.3971H11.0827C12.0043 12.3971 12.3952 12.0063 12.3952 11.0846V9.91797C12.3952 8.9963 12.0043 8.60547 11.0827 8.60547H9.91602Z" fill="currentColor"/>
<path id="Vector_4" d="M4.08268 13.2721H2.91602C1.50435 13.2721 0.728516 12.4963 0.728516 11.0846V9.91797C0.728516 8.5063 1.50435 7.73047 2.91602 7.73047H4.08268C5.49435 7.73047 6.27018 8.5063 6.27018 9.91797V11.0846C6.27018 12.4963 5.49435 13.2721 4.08268 13.2721ZM2.91602 8.60547C1.99435 8.60547 1.60352 8.9963 1.60352 9.91797V11.0846C1.60352 12.0063 1.99435 12.3971 2.91602 12.3971H4.08268C5.00435 12.3971 5.39518 12.0063 5.39518 11.0846V9.91797C5.39518 8.9963 5.00435 8.60547 4.08268 8.60547H2.91602Z" fill="currentColor"/>
</g>
</g>
</svg>
