<svg width="14" height="14" viewBox="0 0 14 14" fill="none" xmlns="http://www.w3.org/2000/svg">
<g id="vuesax/outline/user">
<g id="user">
<path id="Vector" d="M7.00065 7.4388C5.15148 7.4388 3.64648 5.9338 3.64648 4.08464C3.64648 2.23547 5.15148 0.730469 7.00065 0.730469C8.84982 0.730469 10.3548 2.23547 10.3548 4.08464C10.3548 5.9338 8.84982 7.4388 7.00065 7.4388ZM7.00065 1.60547C5.63565 1.60547 4.52148 2.71964 4.52148 4.08464C4.52148 5.44964 5.63565 6.5638 7.00065 6.5638C8.36565 6.5638 9.47982 5.44964 9.47982 4.08464C9.47982 2.71964 8.36565 1.60547 7.00065 1.60547Z" fill="currentColor"/>
<path id="Vector_2" d="M12.0099 13.2708C11.7708 13.2708 11.5724 13.0725 11.5724 12.8333C11.5724 10.8208 9.51911 9.1875 6.99911 9.1875C4.47911 9.1875 2.42578 10.8208 2.42578 12.8333C2.42578 13.0725 2.22745 13.2708 1.98828 13.2708C1.74911 13.2708 1.55078 13.0725 1.55078 12.8333C1.55078 10.3425 3.99495 8.3125 6.99911 8.3125C10.0033 8.3125 12.4474 10.3425 12.4474 12.8333C12.4474 13.0725 12.2491 13.2708 12.0099 13.2708Z" fill="currentColor"/>
</g>
</g>
</svg>
