<svg width="28" height="28" viewBox="0 0 28 28" fill="none" xmlns="http://www.w3.org/2000/svg">
<path d="M23.916 11.887H20.5444C17.7794 11.887 15.5277 9.63536 15.5277 6.87036V3.4987C15.5277 2.85703 15.0027 2.33203 14.361 2.33203H9.41435C5.82102 2.33203 2.91602 4.66536 2.91602 8.83036V19.167C2.91602 23.332 5.82102 25.6654 9.41435 25.6654H18.5844C22.1777 25.6654 25.0827 23.332 25.0827 19.167V13.0537C25.0827 12.412 24.5577 11.887 23.916 11.887Z" fill="#65DA7B"/>
<path d="M18.4336 2.57889C17.9553 2.10056 17.127 2.42723 17.127 3.09223V7.16389C17.127 8.86723 18.5736 10.2789 20.3353 10.2789C21.4436 10.2906 22.9836 10.2906 24.302 10.2906C24.967 10.2906 25.317 9.50889 24.8503 9.04223C23.1703 7.35056 20.1603 4.30556 18.4336 2.57889Z" fill="#65DA7B"/>
</svg>
