<svg width="20" height="20" viewBox="0 0 20 20" fill="none" xmlns="http://www.w3.org/2000/svg">
<path d="M12.4993 18.9577H7.49935C2.97435 18.9577 1.04102 17.0243 1.04102 12.4993V7.49935C1.04102 2.97435 2.97435 1.04102 7.49935 1.04102H9.16602C9.50768 1.04102 9.79102 1.32435 9.79102 1.66602C9.79102 2.00768 9.50768 2.29102 9.16602 2.29102H7.49935C3.65768 2.29102 2.29102 3.65768 2.29102 7.49935V12.4993C2.29102 16.341 3.65768 17.7077 7.49935 17.7077H12.4993C16.341 17.7077 17.7077 16.341 17.7077 12.4993V10.8327C17.7077 10.491 17.991 10.2077 18.3327 10.2077C18.6743 10.2077 18.9577 10.491 18.9577 10.8327V12.4993C18.9577 17.0243 17.0243 18.9577 12.4993 18.9577Z" fill="currentColor"/>
<path d="M7.08409 14.7424C6.57576 14.7424 6.10909 14.5591 5.76742 14.2258C5.35909 13.8174 5.18409 13.2258 5.27576 12.6008L5.63409 10.0924C5.70076 9.60911 6.01742 8.98411 6.35909 8.64245L12.9258 2.07578C14.5841 0.417448 16.2674 0.417448 17.9258 2.07578C18.8341 2.98411 19.2424 3.90911 19.1591 4.83411C19.0841 5.58411 18.6841 6.31745 17.9258 7.06745L11.3591 13.6341C11.0174 13.9758 10.3924 14.2924 9.90909 14.3591L7.40076 14.7174C7.29242 14.7424 7.18409 14.7424 7.08409 14.7424ZM13.8091 2.95911L7.24242 9.52578C7.08409 9.68411 6.90076 10.0508 6.86742 10.2674L6.50909 12.7758C6.47576 13.0174 6.52576 13.2174 6.65076 13.3424C6.77576 13.4674 6.97576 13.5174 7.21742 13.4841L9.72576 13.1258C9.94242 13.0924 10.3174 12.9091 10.4674 12.7508L17.0341 6.18411C17.5758 5.64245 17.8591 5.15911 17.9008 4.70911C17.9508 4.16745 17.6674 3.59245 17.0341 2.95078C15.7008 1.61745 14.7841 1.99245 13.8091 2.95911Z" fill="currentColor"/>
<path d="M16.5423 8.19124C16.484 8.19124 16.4256 8.18291 16.3756 8.16624C14.1839 7.54957 12.4423 5.80791 11.8256 3.61624C11.7339 3.28291 11.9256 2.94124 12.259 2.84124C12.5923 2.74957 12.934 2.94124 13.0256 3.27457C13.5256 5.04957 14.9339 6.45791 16.7089 6.95791C17.0423 7.04957 17.2339 7.39957 17.1423 7.73291C17.0673 8.01624 16.8173 8.19124 16.5423 8.19124Z" fill="currentColor"/>
</svg>
