<?xml version="1.0" encoding="utf-8"?>
<!-- Generator: Adobe Illustrator 28.1.0, SVG Export Plug-In . SVG Version: 6.00 Build 0)  -->
<svg viewBox="0 0 24 24" style="enable-background:new 0 0 24 24;" xml:space="preserve" width="24" height="24">
<style type="text/css">
	.st0{fill:#8C8E97;}
</style>
<path class="st0" d="M12,10.4c0.9,0,1.6,0.7,1.6,1.6h1.5c0-1.7-1.4-3.1-3.1-3.1V10.4z M10.3,12c0-0.9,0.7-1.6,1.6-1.6V8.9
	c-1.7,0-3.1,1.4-3.1,3.1H10.3z M12,13.6c-0.9,0-1.6-0.7-1.6-1.6H8.8c0,1.7,1.4,3.1,3.1,3.1V13.6z M13.6,12c0,0.9-0.7,1.6-1.6,1.6
	v1.5c1.7,0,3.1-1.4,3.1-3.1H13.6z M12,18.1c-3.4-0.1-5.6-1.6-7-3.2c-0.7-0.8-1.2-1.6-1.5-2.1c-0.2-0.3-0.3-0.5-0.3-0.7
	c0-0.1-0.1-0.1-0.1-0.2c0,0,0,0,0,0c0,0,0,0,0,0c0,0,0,0,0,0c0,0,0,0,0,0c0,0,0,0,0,0c0,0,0,0-0.7,0.2s-0.7,0.2-0.7,0.2c0,0,0,0,0,0
	c0,0,0,0,0,0c0,0,0,0,0,0c0,0,0,0,0,0c0,0,0,0,0,0.1c0,0.1,0.1,0.1,0.1,0.2c0.1,0.2,0.2,0.5,0.4,0.8c0.3,0.7,0.9,1.5,1.7,2.4
	c1.6,1.8,4.2,3.6,8.1,3.7L12,18.1z M2.4,12.1c0.7,0.2,0.7,0.2,0.7,0.2c0,0,0,0,0,0c0,0,0,0,0,0c0,0,0,0,0,0c0,0,0,0,0,0c0,0,0,0,0,0
	c0,0,0-0.1,0.1-0.2c0.1-0.2,0.2-0.4,0.3-0.7C3.8,10.7,4.3,9.9,5,9.1c1.4-1.6,3.6-3.2,7-3.2V4.4c-4,0-6.6,1.9-8.2,3.8
	C3.1,9.1,2.5,10,2.2,10.7C2,11,1.9,11.3,1.8,11.5c0,0.1-0.1,0.2-0.1,0.2c0,0,0,0.1,0,0.1c0,0,0,0,0,0c0,0,0,0,0,0c0,0,0,0,0,0
	c0,0,0,0,0,0C1.7,11.9,1.7,11.9,2.4,12.1z M12,5.9c3.4,0,5.6,1.6,7,3.2c0.7,0.8,1.2,1.6,1.5,2.2c0.1,0.3,0.3,0.6,0.3,0.7
	c0,0.1,0.1,0.2,0.1,0.2c0,0,0,0,0,0c0,0,0,0,0,0c0,0,0,0,0,0c0,0,0,0,0,0c0,0,0,0,0,0c0,0,0,0,0.7-0.2s0.7-0.2,0.7-0.2c0,0,0,0,0,0
	c0,0,0,0,0,0c0,0,0,0,0,0c0,0,0,0,0,0c0,0,0,0,0-0.1c0-0.1-0.1-0.1-0.1-0.2c-0.1-0.2-0.2-0.5-0.4-0.8c-0.3-0.7-0.9-1.6-1.7-2.6
	C18.6,6.3,16,4.4,12,4.4V5.9z M21.6,12.1c-0.7-0.2-0.7-0.2-0.7-0.2c0,0,0,0,0,0c0,0,0,0,0,0c0,0,0,0,0,0c0,0,0,0,0,0c0,0,0,0,0,0
	c0,0,0,0.1-0.1,0.2c-0.1,0.2-0.2,0.4-0.3,0.7c-0.3,0.6-0.8,1.4-1.5,2.2c-1.4,1.6-3.6,3.1-7,3.1l0,1.5c3.9,0.1,6.5-1.8,8.1-3.6
	c0.8-0.9,1.3-1.8,1.7-2.5c0.2-0.3,0.3-0.6,0.4-0.8c0-0.1,0.1-0.2,0.1-0.2c0,0,0-0.1,0-0.1c0,0,0,0,0,0c0,0,0,0,0,0c0,0,0,0,0,0
	c0,0,0,0,0,0C22.3,12.4,22.3,12.4,21.6,12.1z M2.4,12.1l-0.7-0.2l-0.1,0.2l0.1,0.2L2.4,12.1z M21.6,12.1l0.7,0.2l0.1-0.2l-0.1-0.2
	L21.6,12.1z"/>
</svg>
