<svg width="16" height="16" viewBox="0 0 16 16" fill="none" xmlns="http://www.w3.org/2000/svg">
<path d="M11.334 15.1654H4.66732C1.72732 15.1654 0.833984 14.272 0.833984 11.332V4.66536C0.833984 1.72536 1.72732 0.832031 4.66732 0.832031H5.66732C6.83398 0.832031 7.20065 1.21203 7.66732 1.83203L8.66732 3.16536C8.88732 3.4587 8.92065 3.4987 9.33398 3.4987H11.334C14.274 3.4987 15.1673 4.39203 15.1673 7.33203V11.332C15.1673 14.272 14.274 15.1654 11.334 15.1654ZM4.66732 1.83203C2.28732 1.83203 1.83398 2.28536 1.83398 4.66536V11.332C1.83398 13.712 2.28732 14.1654 4.66732 14.1654H11.334C13.714 14.1654 14.1673 13.712 14.1673 11.332V7.33203C14.1673 4.95203 13.714 4.4987 11.334 4.4987H9.33398C8.48065 4.4987 8.20065 4.20536 7.86732 3.76536L6.86732 2.43203C6.52065 1.97203 6.42065 1.83203 5.66732 1.83203H4.66732V1.83203Z" fill="#8C8E97"/>
</svg>
