<svg width="17" height="16" viewBox="0 0 17 16" fill="none" xmlns="http://www.w3.org/2000/svg">
<path d="M14.666 7.1665H9.33268V1.83317C9.33268 1.73317 9.26602 1.6665 9.16602 1.6665H7.83268C7.73268 1.6665 7.66602 1.73317 7.66602 1.83317V7.1665H2.33268C2.23268 7.1665 2.16602 7.23317 2.16602 7.33317V8.6665C2.16602 8.7665 2.23268 8.83317 2.33268 8.83317H7.66602V14.1665C7.66602 14.2665 7.73268 14.3332 7.83268 14.3332H9.16602C9.26602 14.3332 9.33268 14.2665 9.33268 14.1665V8.83317H14.666C14.766 8.83317 14.8327 8.7665 14.8327 8.6665V7.33317C14.8327 7.23317 14.766 7.1665 14.666 7.1665Z" fill="#35BC50"/>
</svg>
