<svg width="16" height="16" viewBox="0 0 16 16" fill="none" xmlns="http://www.w3.org/2000/svg">
<path fill-rule="evenodd" clip-rule="evenodd" d="M14.6666 7.99967C14.6666 11.6817 11.682 14.6663 7.99998 14.6663C4.31798 14.6663 1.33331 11.6817 1.33331 7.99967C1.33331 4.31767 4.31798 1.33301 7.99998 1.33301C11.682 1.33301 14.6666 4.31767 14.6666 7.99967ZM7.99998 11.833C8.13259 11.833 8.25976 11.7803 8.35353 11.6866C8.4473 11.5928 8.49998 11.4656 8.49998 11.333V7.33301C8.49998 7.2004 8.4473 7.07322 8.35353 6.97945C8.25976 6.88569 8.13259 6.83301 7.99998 6.83301C7.86737 6.83301 7.74019 6.88569 7.64643 6.97945C7.55266 7.07322 7.49998 7.2004 7.49998 7.33301V11.333C7.49998 11.609 7.72398 11.833 7.99998 11.833ZM7.99998 4.66634C8.17679 4.66634 8.34636 4.73658 8.47138 4.8616C8.59641 4.98663 8.66665 5.1562 8.66665 5.33301C8.66665 5.50982 8.59641 5.67939 8.47138 5.80441C8.34636 5.92944 8.17679 5.99967 7.99998 5.99967C7.82317 5.99967 7.6536 5.92944 7.52858 5.80441C7.40355 5.67939 7.33331 5.50982 7.33331 5.33301C7.33331 5.1562 7.40355 4.98663 7.52858 4.8616C7.6536 4.73658 7.82317 4.66634 7.99998 4.66634Z" fill="#637381"/>
</svg>
