<svg width="12" height="12" viewBox="0 0 12 12" fill="none" xmlns="http://www.w3.org/2000/svg">
<path d="M5.75 6.5C6.16421 6.5 6.5 6.16421 6.5 5.75C6.5 5.33579 6.16421 5 5.75 5C5.33579 5 5 5.33579 5 5.75C5 6.16421 5.33579 6.5 5.75 6.5Z" fill="#616164"/>
<path d="M5.75 3C6.16421 3 6.5 2.66421 6.5 2.25C6.5 1.83579 6.16421 1.5 5.75 1.5C5.33579 1.5 5 1.83579 5 2.25C5 2.66421 5.33579 3 5.75 3Z" fill="#616164"/>
<path d="M5.75 10C6.16421 10 6.5 9.66421 6.5 9.25C6.5 8.83579 6.16421 8.5 5.75 8.5C5.33579 8.5 5 8.83579 5 9.25C5 9.66421 5.33579 10 5.75 10Z" fill="#616164"/>
</svg>
