<svg xmlns="http://www.w3.org/2000/svg" width="24" height="24" viewBox="0 0 24 24" fill="none">
  <path d="M9.41399 18.0729L9.41365 18.0727C9.16287 17.9473 8.84934 17.9091 8.58499 17.915C8.32299 17.921 8.00787 17.9726 7.75988 18.117C7.75898 18.1175 7.75808 18.118 7.75718 18.1186L5.40289 19.4653C5.40273 19.4654 5.40258 19.4654 5.40242 19.4655C4.48257 19.9884 3.63244 20.0093 3.04569 19.6602L3.04571 19.6602L3.03927 19.6565C2.44094 19.3124 2.04004 18.572 2.04004 17.5099V7.78991C2.04004 7.4394 2.15774 7.0403 2.37095 6.67388C2.58416 6.30745 2.87304 6.0078 3.17752 5.83437L3.17854 5.83379L7.50854 3.35379L7.50939 3.3533C7.78895 3.19246 8.16428 3.09545 8.56105 3.08473C8.95786 3.074 9.33727 3.15062 9.62405 3.29593L9.62609 3.29695L14.8761 5.92695L14.8764 5.92713C15.1298 6.05379 15.4429 6.08838 15.7042 6.08096C15.9678 6.07347 16.2726 6.02054 16.5153 5.89109L16.5154 5.89126L16.5277 5.88426L18.8772 4.54456C18.8773 4.54448 18.8775 4.5444 18.8776 4.54432C19.7975 4.02139 20.6476 4.00052 21.2344 4.34961L21.2344 4.34966L21.2408 4.35336C21.8391 4.69741 22.24 5.43779 22.24 6.49991V16.2299C22.24 16.5804 22.1223 16.9795 21.9091 17.3459C21.6959 17.7124 21.407 18.012 21.1026 18.1855L21.1015 18.186L16.7798 20.6613C16.4845 20.8147 16.0707 20.9099 15.65 20.9099C15.2856 20.9099 14.9332 20.833 14.661 20.7014L9.41399 18.0729ZM14.8761 20.257L14.8764 20.2571C15.1298 20.3838 15.4429 20.4184 15.7042 20.411C15.9678 20.4035 16.2726 20.3505 16.5153 20.2211L16.522 20.2175L16.5285 20.2138L20.8552 17.7357C20.8558 17.7354 20.8564 17.735 20.857 17.7347C21.1237 17.584 21.3364 17.3215 21.4775 17.0784C21.6189 16.8347 21.74 16.5213 21.74 16.2199V6.48991C21.74 5.81839 21.5546 5.09217 20.9723 4.77254C20.4177 4.46252 19.7093 4.63876 19.1217 4.97595C19.1215 4.97606 19.1213 4.97617 19.1211 4.97628L16.7724 6.31556L16.7707 6.31652C16.4911 6.47737 16.1158 6.57437 15.719 6.58509C15.3222 6.59582 14.9428 6.5192 14.656 6.37389L14.654 6.37287L9.40399 3.74287L9.40365 3.7427C9.15032 3.61604 8.83718 3.58144 8.57584 3.58886C8.31229 3.59635 8.00747 3.64928 7.76474 3.77873L7.75809 3.78229L7.75154 3.78604L3.42298 6.26521C3.15612 6.41601 2.94323 6.6788 2.8019 6.92388C2.65978 7.17032 2.54004 7.48549 2.54004 7.78991V17.5199C2.54004 17.8786 2.59077 18.2184 2.70399 18.5098C2.81612 18.7983 3.00233 19.0691 3.28975 19.2328C3.57668 19.4012 3.90554 19.4279 4.21283 19.3819C4.5228 19.3355 4.84361 19.2113 5.15555 19.0355L5.15771 19.0343L7.50771 17.6943L7.50774 17.6943L7.51403 17.6906C7.80943 17.5164 8.21637 17.4199 8.64004 17.4199C9.00439 17.4199 9.35682 17.4968 9.62899 17.6284L14.8761 20.257Z" fill="currentColor" stroke="currentColor"/>
  <path d="M8.56006 17.25C8.4262 17.25 8.31006 17.1339 8.31006 17V4C8.31006 3.86614 8.4262 3.75 8.56006 3.75C8.69392 3.75 8.81006 3.86614 8.81006 4V17C8.81006 17.1339 8.69392 17.25 8.56006 17.25Z" fill="#8C8E97" stroke="currentColor"/>
  <path d="M15.73 20.2501C15.5961 20.2501 15.48 20.134 15.48 20.0001V6.62012C15.48 6.48626 15.5961 6.37012 15.73 6.37012C15.8638 6.37012 15.98 6.48626 15.98 6.62012V20.0001C15.98 20.134 15.8638 20.2501 15.73 20.2501Z" fill="#8C8E97" stroke="currentColor"/>
</svg>