<svg xmlns="http://www.w3.org/2000/svg" width="20" height="20" viewBox="0 0 20 20" fill="none">
  <path d="M13.9582 2.96675V1.66675C13.9582 1.32508 13.6749 1.04175 13.3332 1.04175C12.9915 1.04175 12.7082 1.32508 12.7082 1.66675V2.91675H7.29153V1.66675C7.29153 1.32508 7.0082 1.04175 6.66653 1.04175C6.32486 1.04175 6.04153 1.32508 6.04153 1.66675V2.96675C3.79153 3.17508 2.69987 4.51675 2.5332 6.50841C2.51653 6.75008 2.71653 6.95008 2.94987 6.95008H17.0499C17.2915 6.95008 17.4915 6.74175 17.4665 6.50841C17.2999 4.51675 16.2082 3.17508 13.9582 2.96675Z" fill="#8C8E97"/>
  <path opacity="0.4" d="M16.6667 8.19995C17.125 8.19995 17.5 8.57495 17.5 9.03328V14.1666C17.5 16.6666 16.25 18.3333 13.3333 18.3333H6.66667C3.75 18.3333 2.5 16.6666 2.5 14.1666V9.03328C2.5 8.57495 2.875 8.19995 3.33333 8.19995H16.6667Z" fill="#8C8E97"/>
  <path d="M7.08333 12.5C6.86667 12.5 6.65 12.4083 6.49167 12.2583C6.34167 12.1 6.25 11.8833 6.25 11.6666C6.25 11.45 6.34167 11.2333 6.49167 11.075C6.725 10.8416 7.09167 10.7666 7.4 10.9C7.50833 10.9416 7.6 11 7.675 11.075C7.825 11.2333 7.91667 11.45 7.91667 11.6666C7.91667 11.8833 7.825 12.1 7.675 12.2583C7.51667 12.4083 7.3 12.5 7.08333 12.5Z" fill="#8C8E97"/>
  <path d="M9.99984 12.5C9.78317 12.5 9.5665 12.4083 9.40817 12.2583C9.25817 12.1 9.1665 11.8833 9.1665 11.6666C9.1665 11.45 9.25817 11.2333 9.40817 11.075C9.48317 11 9.57484 10.9416 9.68317 10.9C9.9915 10.7666 10.3582 10.8416 10.5915 11.075C10.7415 11.2333 10.8332 11.45 10.8332 11.6666C10.8332 11.8833 10.7415 12.1 10.5915 12.2583C10.5498 12.2916 10.5082 12.325 10.4665 12.3583C10.4165 12.3916 10.3665 12.4167 10.3165 12.4333C10.2665 12.4583 10.2165 12.475 10.1665 12.4833C10.1082 12.4917 10.0582 12.5 9.99984 12.5Z" fill="#8C8E97"/>
  <path d="M12.9168 12.4999C12.7002 12.4999 12.4835 12.4083 12.3252 12.2583C12.1752 12.0999 12.0835 11.8833 12.0835 11.6666C12.0835 11.4499 12.1752 11.2333 12.3252 11.0749C12.4085 10.9999 12.4918 10.9416 12.6002 10.8999C12.7502 10.8333 12.9168 10.8166 13.0835 10.8499C13.1335 10.8583 13.1835 10.8749 13.2335 10.8999C13.2835 10.9166 13.3335 10.9416 13.3835 10.9749C13.4252 11.0083 13.4668 11.0416 13.5085 11.0749C13.6585 11.2333 13.7502 11.4499 13.7502 11.6666C13.7502 11.8833 13.6585 12.0999 13.5085 12.2583C13.4668 12.2916 13.4252 12.3249 13.3835 12.3583C13.3335 12.3916 13.2835 12.4166 13.2335 12.4333C13.1835 12.4583 13.1335 12.4749 13.0835 12.4833C13.0252 12.4916 12.9668 12.4999 12.9168 12.4999Z" fill="#8C8E97"/>
  <path d="M7.08333 15.4167C6.975 15.4167 6.86667 15.3917 6.76667 15.35C6.65833 15.3084 6.575 15.25 6.49167 15.175C6.34167 15.0167 6.25 14.8 6.25 14.5833C6.25 14.3667 6.34167 14.15 6.49167 13.9917C6.575 13.9167 6.65833 13.8583 6.76667 13.8167C6.91667 13.75 7.08333 13.7333 7.25 13.7667C7.3 13.775 7.35 13.7917 7.4 13.8167C7.45 13.8333 7.5 13.8584 7.55 13.8917C7.59167 13.925 7.63333 13.9584 7.675 13.9917C7.825 14.15 7.91667 14.3667 7.91667 14.5833C7.91667 14.8 7.825 15.0167 7.675 15.175C7.63333 15.2083 7.59167 15.25 7.55 15.275C7.5 15.3083 7.45 15.3334 7.4 15.35C7.35 15.375 7.3 15.3917 7.25 15.4C7.19167 15.4084 7.14167 15.4167 7.08333 15.4167Z" fill="#8C8E97"/>
  <path d="M9.99984 15.4167C9.78317 15.4167 9.5665 15.3251 9.40817 15.1751C9.25817 15.0167 9.1665 14.8001 9.1665 14.5834C9.1665 14.3667 9.25817 14.1501 9.40817 13.9917C9.7165 13.6834 10.2832 13.6834 10.5915 13.9917C10.7415 14.1501 10.8332 14.3667 10.8332 14.5834C10.8332 14.8001 10.7415 15.0167 10.5915 15.1751C10.4332 15.3251 10.2165 15.4167 9.99984 15.4167Z" fill="#8C8E97"/>
  <path d="M12.9168 15.4167C12.7002 15.4167 12.4835 15.3251 12.3252 15.1751C12.1752 15.0167 12.0835 14.8001 12.0835 14.5834C12.0835 14.3667 12.1752 14.1501 12.3252 13.9917C12.6335 13.6834 13.2002 13.6834 13.5085 13.9917C13.6585 14.1501 13.7502 14.3667 13.7502 14.5834C13.7502 14.8001 13.6585 15.0167 13.5085 15.1751C13.3502 15.3251 13.1335 15.4167 12.9168 15.4167Z" fill="#8C8E97"/>
</svg>