<svg width="34" height="34" viewBox="0 0 34 34" fill="none" xmlns="http://www.w3.org/2000/svg">
<path d="M26.9453 4.93165C24.197 2.18331 21.5053 2.11248 18.6861 4.93165L16.972 6.64581C16.8303 6.78748 16.7736 7.01415 16.8303 7.21248C17.907 10.9666 20.9103 13.97 24.6645 15.0466C24.7211 15.0608 24.7778 15.075 24.8345 15.075C24.9903 15.075 25.132 15.0183 25.2453 14.905L26.9453 13.1908C28.3478 11.8025 29.0278 10.4566 29.0278 9.09665C29.042 7.69415 28.362 6.33415 26.9453 4.93165Z" fill="white"/>
<path d="M22.1138 16.3336C21.703 16.1353 21.3063 15.937 20.9238 15.7103C20.6121 15.5261 20.3146 15.3278 20.0171 15.1153C19.7763 14.9595 19.493 14.7328 19.2238 14.5061C19.1955 14.492 19.0963 14.407 18.983 14.2936C18.5155 13.897 17.9913 13.387 17.5238 12.8203C17.4813 12.792 17.4105 12.6928 17.3113 12.5653C17.1696 12.3953 16.9288 12.112 16.7163 11.7861C16.5463 11.5736 16.348 11.262 16.1638 10.9503C15.9371 10.5678 15.7388 10.1853 15.5405 9.78865C15.463 9.62259 15.392 9.45869 15.3258 9.2978C15.187 8.9607 14.7509 8.86408 14.4931 9.12184L6.14797 17.467C5.9638 17.6511 5.7938 18.0053 5.7513 18.2461L4.9863 23.672C4.84464 24.6353 5.1138 25.542 5.7088 26.1511C6.2188 26.647 6.92714 26.9161 7.69214 26.9161C7.86214 26.9161 8.03214 26.902 8.20214 26.8736L13.6421 26.1086C13.8971 26.0661 14.2513 25.8961 14.4213 25.712L22.7593 17.374C23.0188 17.1144 22.9203 16.6707 22.5808 16.5312C22.4292 16.4689 22.2745 16.4033 22.1138 16.3336Z" fill="white"/>
</svg>
