<svg width="44" height="44" viewBox="0 0 44 44" fill="none" xmlns="http://www.w3.org/2000/svg">
<path d="M22 44C34.1503 44 44 34.1503 44 22C44 9.84973 34.1503 0 22 0C9.84973 0 0 9.84973 0 22C0 34.1503 9.84973 44 22 44Z" fill="#EEEEF4"/>
<path d="M22.3145 20.3257C25.352 20.3257 27.8145 17.8632 27.8145 14.8257C27.8145 11.7881 25.352 9.32568 22.3145 9.32568C19.2769 9.32568 16.8145 11.7881 16.8145 14.8257C16.8145 17.8632 19.2769 20.3257 22.3145 20.3257Z" fill="#D0D2DA"/>
<path d="M22.3145 34.0757C28.5967 34.0757 31.9395 31.6517 31.9395 28.6616C31.9395 25.6715 28.5967 21.7007 22.3145 21.7007C16.0322 21.7007 12.6895 25.6715 12.6895 28.6616C12.6895 31.6517 16.0322 34.0757 22.3145 34.0757Z" fill="#D0D2DA"/>
</svg>
