<svg width="16" height="16" viewBox="0 0 16 16" fill="none" xmlns="http://www.w3.org/2000/svg">
<path d="M14 5.16797H2C1.72667 5.16797 1.5 4.9413 1.5 4.66797C1.5 4.39464 1.72667 4.16797 2 4.16797H14C14.2733 4.16797 14.5 4.39464 14.5 4.66797C14.5 4.9413 14.2733 5.16797 14 5.16797Z" fill="#242426"/>
<path d="M12 8.5H4C3.72667 8.5 3.5 8.27333 3.5 8C3.5 7.72667 3.72667 7.5 4 7.5H12C12.2733 7.5 12.5 7.72667 12.5 8C12.5 8.27333 12.2733 8.5 12 8.5Z" fill="#242426"/>
<path d="M9.33268 11.832H6.66602C6.39268 11.832 6.16602 11.6054 6.16602 11.332C6.16602 11.0587 6.39268 10.832 6.66602 10.832H9.33268C9.60602 10.832 9.83268 11.0587 9.83268 11.332C9.83268 11.6054 9.60602 11.832 9.33268 11.832Z" fill="#242426"/>
</svg>
