<svg width="16" height="17" viewBox="0 0 16 17" fill="none" xmlns="http://www.w3.org/2000/svg">
<path d="M7.42258 3.25397H3.78322C2.57725 3.25397 1.59961 4.23158 1.59961 5.43752V12.7161C1.59961 13.922 2.57725 14.8996 3.78322 14.8996H11.0619C12.2679 14.8996 13.2455 13.922 13.2455 12.7161L13.2455 9.07679M5.23897 11.2603L7.88719 10.7267C8.02778 10.6984 8.15687 10.6292 8.25825 10.5277L14.1866 4.59635C14.4708 4.31198 14.4706 3.85101 14.1861 3.56687L12.9303 2.3125C12.6459 2.02848 12.1852 2.02867 11.9011 2.31293L5.97215 8.24493C5.87097 8.34616 5.80188 8.47498 5.77353 8.61527L5.23897 11.2603Z" stroke="currentColor" stroke-width="1.5" stroke-linecap="round" stroke-linejoin="round"/>
</svg>
