<svg width="16" height="17" viewBox="0 0 16 17" fill="none" xmlns="http://www.w3.org/2000/svg">
<path d="M10.6832 14.1003L10.6834 12.0005C10.6835 10.8406 9.72417 9.90032 8.54071 9.90032H3.74255C2.55927 9.90032 1.59998 10.8404 1.59985 12.0001L1.59961 14.1003M14.3994 14.1004L14.3996 12.0006C14.3997 10.8407 13.4404 9.90043 12.2569 9.90043M10.2705 3.31294C10.7967 3.69558 11.1377 4.309 11.1377 5.00048C11.1377 5.69197 10.7967 6.30539 10.2705 6.68803M8.32881 5.00037C8.32881 6.16016 7.36949 7.10035 6.1861 7.10035C5.00272 7.10035 4.0434 6.16016 4.0434 5.00037C4.0434 3.84058 5.00272 2.90039 6.1861 2.90039C7.36949 2.90039 8.32881 3.84058 8.32881 5.00037Z" stroke="currentColor" stroke-width="1.5" stroke-linecap="round" stroke-linejoin="round"/>
</svg>
