<svg xmlns="http://www.w3.org/2000/svg" width="268.684" height="58.143" viewBox="0 0 268.684 58.143">
    <defs>
        <clipPath id="f6n0cssxka">
            <path data-name="사각형 10752" style="fill:#52bc67" d="M0 0h268.684v58.143H0z"/>
        </clipPath>
    </defs>
    <g data-name="그룹 14511" style="clip-path:url(#f6n0cssxka)">
        <path data-name="패스 12948" d="M236.912 37.6c13.792 1.56 23.81 3.009 28.6 3.742V29.864h-.013a925.718 925.718 0 0 0-131.157-9.71c-28.715 0-55.568 1.571-77.606 3.48q-3.04.263-5.954.534l-.068.006-1.414.132h-.039a925.963 925.963 0 0 0-32.354 3.625A12.359 12.359 0 0 0 18.494 39.2c6.1-.785 13.546-1.672 22.077-2.556v7.836a17.211 17.211 0 1 1-11.882-29.657h11.883V3.347H28.689a28.689 28.689 0 1 0 23.358 45.334V35.526q2.306-.211 4.689-.417v25.615h11.476V34.183q2.232-.167 4.513-.327l15.513 26.868h13.251l-15.98-27.677a898.625 898.625 0 0 1 19.006-.877v28.554h11.475V31.837q2.946-.066 5.929-.112v16.324l.062.094v12.518h23.877a29.034 29.034 0 0 0 25.534-15.2 28.686 28.686 0 0 0 48.715 3.217V35.85q2.726.259 5.33.522v24.352h43.247V49.249h-31.772zm-91.053 10.82c-.074 0-.146 0-.22-.005v.005H133.6V31.629h.744c9.684 0 19.156.179 28.3.489a16.8 16.8 0 0 1-16.786 16.3m62.773-3.94a17.206 17.206 0 0 1-29.076-11.631 958.077 958.077 0 0 1 29.076 1.977z" transform="translate(0 -2.582)" style="fill:#52bc67"/>
        <path data-name="패스 12949" d="M468.6 11.127V0h-11.479v11.46q5.656-.2 11.475-.333" transform="translate(-352.606 -.001)" style="fill:#52bc67"/>
        <path data-name="패스 12950" d="M795.953 16.7V3.347h-11.884a28.634 28.634 0 0 0-22.662 11.1 953.325 953.325 0 0 1 34.546 2.249" transform="translate(-587.321 -2.582)" style="fill:#52bc67"/>
        <path data-name="패스 12951" d="M545.878 10.918c11.986 0 23.647.274 34.77.731A28.99 28.99 0 0 0 557.395 0h-23.877v11.013q6.113-.093 12.36-.1" transform="translate(-411.536)" style="fill:#52bc67"/>
        <path data-name="패스 12952" d="M986 3.346v14.9c4.063.409 7.9.822 11.476 1.227v-4.651h31.771V3.346z" transform="translate(-760.567 -2.581)" style="fill:#52bc67"/>
        <path data-name="패스 12953" d="M289.721 14.284a16.811 16.811 0 0 0-15.75-10.938h-25.82v13.633a959.42 959.42 0 0 1 41.57-2.7" transform="translate(-191.415 -2.581)" style="fill:#52bc67"/>
    </g>
</svg>
