<svg width="185" height="57" viewBox="0 0 185 57" fill="none" xmlns="http://www.w3.org/2000/svg">
<path d="M14.15 11.35V1.125C14.15 0.924999 14.225 0.749999 14.375 0.599999C14.525 0.449999 14.7083 0.374999 14.925 0.374999H20.075C20.275 0.374999 20.45 0.449999 20.6 0.599999C20.75 0.749999 20.825 0.924999 20.825 1.125V13.825C20.825 16.2417 19.9 17.95 18.05 18.95C16.35 19.85 13.8833 20.3 10.65 20.3C7.31667 20.3 4.84167 19.85 3.225 18.95C1.44167 17.95 0.55 16.1583 0.55 13.575V1.125C0.55 0.924999 0.625 0.749999 0.775 0.599999C0.925 0.449999 1.10833 0.374999 1.325 0.374999H6.45C6.66667 0.374999 6.85 0.449999 7 0.599999C7.15 0.749999 7.225 0.924999 7.225 1.125V11.425C7.225 12.575 7.49167 13.3917 8.025 13.875C8.575 14.3583 9.48333 14.6 10.75 14.6C11.95 14.6 12.8167 14.35 13.35 13.85C13.8833 13.3333 14.15 12.5 14.15 11.35ZM33.1117 6.475C33.5951 7.10833 34.0701 7.75 34.5367 8.4C35.0034 9.03333 35.4784 9.68333 35.9617 10.35V1.15C35.9617 0.949999 36.0367 0.774999 36.1867 0.624999C36.3367 0.474999 36.5201 0.399999 36.7367 0.399999H41.6117C41.8284 0.399999 42.0117 0.474999 42.1617 0.624999C42.3117 0.774999 42.3867 0.949999 42.3867 1.15V19.25C42.3867 19.45 42.3117 19.625 42.1617 19.775C42.0117 19.925 41.8284 20 41.6117 20H36.0117C35.9284 20 35.8201 19.975 35.6867 19.925C35.5534 19.8583 35.4534 19.7833 35.3867 19.7L28.3367 10.2V19.25C28.3367 19.45 28.2617 19.625 28.1117 19.775C27.9617 19.925 27.7784 20 27.5617 20H22.6867C22.4867 20 22.3117 19.925 22.1617 19.775C22.0117 19.625 21.9367 19.45 21.9367 19.25V1.15C21.9367 0.949999 22.0117 0.774999 22.1617 0.624999C22.3117 0.474999 22.4867 0.399999 22.6867 0.399999H28.2367C28.3367 0.399999 28.4534 0.433332 28.5867 0.499999C28.7367 0.566666 28.8284 0.641666 28.8617 0.724999C29.5951 1.725 30.3034 2.7 30.9867 3.65C31.6867 4.58333 32.3951 5.525 33.1117 6.475ZM48.7943 20H44.1443C43.961 20 43.8027 19.925 43.6693 19.775C43.5527 19.625 43.4943 19.45 43.4943 19.25V1.15C43.4943 0.949999 43.5527 0.774999 43.6693 0.624999C43.8027 0.474999 43.961 0.399999 44.1443 0.399999H48.7943C48.9777 0.399999 49.1277 0.474999 49.2443 0.624999C49.3777 0.774999 49.4443 0.949999 49.4443 1.15V19.25C49.4443 19.45 49.3777 19.625 49.2443 19.775C49.1277 19.925 48.9777 20 48.7943 20ZM67.3 0.374999H72.75C73.0667 0.374999 73.2917 0.491666 73.425 0.724999C73.575 0.941666 73.5833 1.19167 73.45 1.475L64.35 19.875C64.2833 19.9917 64.175 20.0917 64.025 20.175C63.8917 20.2583 63.7667 20.3 63.65 20.3H60.375C60.2583 20.3 60.125 20.25 59.975 20.15C59.825 20.0667 59.725 19.9667 59.675 19.85L50.65 1.45C50.5167 1.16667 50.525 0.916665 50.675 0.7C50.825 0.483333 51.05 0.374999 51.35 0.374999H57.025C57.1583 0.374999 57.2917 0.416666 57.425 0.499999C57.5583 0.583332 57.6583 0.691666 57.725 0.825L62.25 10.525L66.6 0.825C66.65 0.708332 66.7417 0.608332 66.875 0.524999C67.025 0.424999 67.1667 0.374999 67.3 0.374999ZM89.9631 20H74.7131C74.5131 20 74.3381 19.925 74.1881 19.775C74.0381 19.625 73.9631 19.45 73.9631 19.25V1.15C73.9631 0.949999 74.0381 0.774999 74.1881 0.624999C74.3381 0.474999 74.5131 0.399999 74.7131 0.399999H89.2881C89.4881 0.399999 89.6631 0.474999 89.8131 0.624999C89.9631 0.774999 90.0381 0.949999 90.0381 1.15V4.8C90.0381 5.01667 89.9631 5.2 89.8131 5.35C89.6631 5.5 89.4881 5.575 89.2881 5.575H80.8881V7.575H88.0631C88.2631 7.575 88.4381 7.65 88.5881 7.8C88.7381 7.95 88.8131 8.125 88.8131 8.325V11.925C88.8131 12.1417 88.7381 12.325 88.5881 12.475C88.4381 12.625 88.2631 12.7 88.0631 12.7L80.8881 12.725V14.825H89.9631C90.1798 14.825 90.3548 14.9 90.4881 15.05C90.6381 15.2 90.7131 15.3833 90.7131 15.6V19.25C90.7131 19.45 90.6381 19.625 90.4881 19.775C90.3548 19.925 90.1798 20 89.9631 20ZM101.31 13.075H98.8848V19.25C98.8848 19.45 98.8098 19.625 98.6598 19.775C98.5098 19.925 98.3264 20 98.1098 20H92.5598C92.3598 20 92.1848 19.925 92.0348 19.775C91.8848 19.625 91.8098 19.45 91.8098 19.25V1.15C91.8098 0.949999 91.8848 0.774999 92.0348 0.624999C92.1848 0.474999 92.3598 0.399999 92.5598 0.399999H105.11C107.26 0.399999 108.985 0.874999 110.285 1.825C111.685 2.85833 112.385 4.21667 112.385 5.9C112.385 7.8 111.81 9.175 110.66 10.025C110.376 10.2417 110.043 10.45 109.66 10.65C109.293 10.8333 108.885 11 108.435 11.15C108.968 11.4333 109.418 11.7417 109.785 12.075C110.168 12.4083 110.485 12.7417 110.735 13.075L114.16 18.85C114.326 19.1333 114.335 19.4 114.185 19.65C114.051 19.8833 113.826 20 113.51 20H107.16C107.026 20 106.893 19.9583 106.76 19.875C106.643 19.7917 106.551 19.6917 106.485 19.575L103.285 13.625L103.31 13.675C103.243 13.5917 103.168 13.5083 103.085 13.425C103.018 13.3417 102.943 13.275 102.86 13.225C102.726 13.125 102.21 13.075 101.31 13.075ZM102.635 4.875H98.7348V8.6H101.735C102.951 8.6 103.876 8.45833 104.51 8.175C105.143 7.89167 105.46 7.38333 105.46 6.65C105.46 6.03333 105.218 5.58333 104.735 5.3C104.251 5.01667 103.551 4.875 102.635 4.875ZM132.544 13.65C132.544 14.7333 132.335 15.6917 131.919 16.525C131.519 17.3417 130.935 18.0333 130.169 18.6C129.419 19.15 128.494 19.575 127.394 19.875C126.31 20.1583 125.085 20.3 123.719 20.3C122.985 20.3 122.252 20.2667 121.519 20.2C120.802 20.15 120.085 20.0667 119.369 19.95C119.202 19.9167 119.052 19.8917 118.919 19.875C118.802 19.8583 118.677 19.8333 118.544 19.8V19.825C118.06 19.7417 117.644 19.6667 117.294 19.6C116.96 19.5167 116.702 19.4583 116.519 19.425C116.369 19.3917 116.235 19.3083 116.119 19.175C116.002 19.0417 115.935 18.9 115.919 18.75L115.519 14C115.485 13.6833 115.585 13.45 115.819 13.3C116.052 13.1333 116.31 13.1167 116.594 13.25C117.41 13.65 118.544 14.1083 119.994 14.625C121.494 15.125 122.852 15.375 124.069 15.375C124.819 15.375 125.419 15.2833 125.869 15.1C126.335 14.9167 126.569 14.65 126.569 14.3C126.569 14.1167 126.435 13.9333 126.169 13.75C125.735 13.4833 124.752 13.2 123.219 12.9C120.335 12.3167 118.335 11.5583 117.219 10.625C116.002 9.625 115.394 8.225 115.394 6.425C115.394 4.325 116.135 2.73333 117.619 1.65C119.119 0.566666 121.202 0.0249994 123.869 0.0249994C125.035 0.0249994 126.277 0.141666 127.594 0.374999C128.227 0.491666 128.777 0.599999 129.244 0.7C129.727 0.799999 130.127 0.899999 130.444 0.999999C130.577 1.03333 130.694 1.11667 130.794 1.25C130.91 1.38333 130.977 1.51667 130.994 1.65L131.494 6.025C131.527 6.34167 131.427 6.59167 131.194 6.775C130.96 6.94167 130.702 6.95 130.419 6.8C129.902 6.55 129.36 6.31667 128.794 6.1C128.227 5.88333 127.635 5.68333 127.019 5.5C125.785 5.15 124.677 4.975 123.694 4.975C122.944 4.975 122.36 5.03333 121.944 5.15C121.544 5.26667 121.344 5.46667 121.344 5.75C121.344 6.01667 121.552 6.225 121.969 6.375C122.352 6.50833 122.819 6.65833 123.369 6.825C123.919 6.975 124.569 7.11667 125.319 7.25C128.019 7.78333 129.869 8.55 130.869 9.55C131.985 10.6167 132.544 11.9833 132.544 13.65ZM138.955 20H134.305C134.122 20 133.964 19.925 133.83 19.775C133.714 19.625 133.655 19.45 133.655 19.25V1.15C133.655 0.949999 133.714 0.774999 133.83 0.624999C133.964 0.474999 134.122 0.399999 134.305 0.399999H138.955C139.139 0.399999 139.289 0.474999 139.405 0.624999C139.539 0.774999 139.605 0.949999 139.605 1.15V19.25C139.605 19.45 139.539 19.625 139.405 19.775C139.289 19.925 139.139 20 138.955 20ZM153.036 20H147.561C147.361 20 147.186 19.925 147.036 19.775C146.886 19.625 146.811 19.45 146.811 19.25V5.325H141.636C141.419 5.325 141.236 5.25 141.086 5.1C140.953 4.95 140.886 4.76667 140.886 4.55V1.15C140.886 0.949999 140.953 0.774999 141.086 0.624999C141.236 0.474999 141.419 0.399999 141.636 0.399999H158.936C159.153 0.399999 159.336 0.474999 159.486 0.624999C159.636 0.774999 159.711 0.949999 159.711 1.15V4.55C159.711 4.76667 159.636 4.95 159.486 5.1C159.336 5.25 159.153 5.325 158.936 5.325H153.786V19.25C153.786 19.45 153.711 19.625 153.561 19.775C153.428 19.925 153.253 20 153.036 20ZM177.93 0.399999H183.855C184.205 0.399999 184.447 0.541666 184.58 0.825C184.73 1.10833 184.697 1.38333 184.48 1.65L175.78 12.15V19.25C175.78 19.45 175.705 19.625 175.555 19.775C175.405 19.925 175.222 20 175.005 20H169.405C169.205 20 169.03 19.925 168.88 19.775C168.73 19.625 168.655 19.45 168.655 19.25V12.15L159.93 1.65C159.697 1.38333 159.647 1.10833 159.78 0.825C159.93 0.541666 160.18 0.399999 160.53 0.399999H167.005C167.089 0.399999 167.197 0.433332 167.33 0.499999C167.464 0.55 167.555 0.608333 167.605 0.674998L172.68 6.95L177.305 0.724999C177.339 0.641666 177.43 0.566666 177.58 0.499999C177.73 0.433332 177.847 0.399999 177.93 0.399999ZM21.525 36.4H27.4C27.6167 36.4 27.8 36.475 27.95 36.625C28.1 36.775 28.175 36.95 28.175 37.15V55.25C28.175 55.45 28.1 55.625 27.95 55.775C27.8 55.925 27.6167 56 27.4 56H22.4C22.1833 56 22 55.925 21.85 55.775C21.7 55.625 21.625 55.45 21.625 55.25V45.475L16.2 55.575C16.1333 55.6917 16.0333 55.7917 15.9 55.875C15.7667 55.9583 15.6417 56 15.525 56H13.175C13.0583 56 12.9333 55.9583 12.8 55.875C12.6667 55.7917 12.5667 55.6917 12.5 55.575L7.1 45.5V55.25C7.1 55.45 7.025 55.625 6.875 55.775C6.725 55.925 6.54167 56 6.325 56H1.325C1.10833 56 0.925 55.925 0.775 55.775C0.625 55.625 0.55 55.45 0.55 55.25V37.15C0.55 36.95 0.625 36.775 0.775 36.625C0.925 36.475 1.10833 36.4 1.325 36.4H7.175C7.275 36.4 7.39167 36.4417 7.525 36.525C7.675 36.5917 7.775 36.675 7.825 36.775L14.375 47.4L20.85 36.775C20.9167 36.675 21.0167 36.5917 21.15 36.525C21.2833 36.4417 21.4083 36.4 21.525 36.4ZM54.4354 56H48.5854C48.4687 56 48.3354 55.9583 48.1854 55.875C48.052 55.7917 47.9604 55.6917 47.9104 55.575L46.6354 53.125H37.2604L35.9854 55.575C35.9187 55.6917 35.8187 55.7917 35.6854 55.875C35.552 55.9583 35.4187 56 35.2854 56H30.1104C29.777 56 29.5354 55.8833 29.3854 55.65C29.2354 55.4167 29.2437 55.1583 29.4104 54.875L39.6854 36.8C39.7354 36.7 39.8354 36.6083 39.9854 36.525C40.1354 36.4417 40.2604 36.4 40.3604 36.4H44.7854C44.902 36.4 45.027 36.4417 45.1604 36.525C45.2937 36.6083 45.3937 36.7083 45.4604 36.825L55.1354 54.9C55.2687 55.1833 55.2687 55.4417 55.1354 55.675C55.002 55.8917 54.7687 56 54.4354 56ZM42.1104 44.375L39.7104 48.725H44.3604L42.1104 44.375ZM61.8031 56H56.3781C56.1781 56 56.0031 55.925 55.8531 55.775C55.7031 55.625 55.6281 55.45 55.6281 55.25V37.15C55.6281 36.95 55.7031 36.775 55.8531 36.625C56.0031 36.475 56.1781 36.4 56.3781 36.4H61.8031C62.0031 36.4 62.1781 36.475 62.3281 36.625C62.4781 36.775 62.5531 36.95 62.5531 37.15V43.375L68.4531 36.65C68.5031 36.6 68.5948 36.55 68.7281 36.5C68.8615 36.4333 68.9615 36.4 69.0281 36.4H74.8281C74.9948 36.4 75.1448 36.4417 75.2781 36.525C75.4115 36.6083 75.5031 36.7167 75.5531 36.85C75.6198 36.9833 75.6448 37.125 75.6281 37.275C75.6115 37.425 75.5448 37.5583 75.4281 37.675L68.4031 45.4L77.9281 54.7C78.0615 54.8333 78.1448 54.975 78.1781 55.125C78.2115 55.275 78.1948 55.4167 78.1281 55.55C78.0781 55.6833 77.9865 55.7917 77.8531 55.875C77.7365 55.9583 77.5865 56 77.4031 56H70.6781C70.6115 56 70.5115 55.975 70.3781 55.925C70.2615 55.875 70.1781 55.8333 70.1281 55.8L62.5531 48.425V55.25C62.5531 55.45 62.4781 55.625 62.3281 55.775C62.1781 55.925 62.0031 56 61.8031 56ZM95.3098 56H80.0598C79.8598 56 79.6848 55.925 79.5348 55.775C79.3848 55.625 79.3098 55.45 79.3098 55.25V37.15C79.3098 36.95 79.3848 36.775 79.5348 36.625C79.6848 36.475 79.8598 36.4 80.0598 36.4H94.6348C94.8348 36.4 95.0098 36.475 95.1598 36.625C95.3098 36.775 95.3848 36.95 95.3848 37.15V40.8C95.3848 41.0167 95.3098 41.2 95.1598 41.35C95.0098 41.5 94.8348 41.575 94.6348 41.575H86.2348V43.575H93.4098C93.6098 43.575 93.7848 43.65 93.9348 43.8C94.0848 43.95 94.1598 44.125 94.1598 44.325V47.925C94.1598 48.1417 94.0848 48.325 93.9348 48.475C93.7848 48.625 93.6098 48.7 93.4098 48.7L86.2348 48.725V50.825H95.3098C95.5264 50.825 95.7014 50.9 95.8348 51.05C95.9848 51.2 96.0598 51.3833 96.0598 51.6V55.25C96.0598 55.45 95.9848 55.625 95.8348 55.775C95.7014 55.925 95.5264 56 95.3098 56ZM117.397 47.35V37.125C117.397 36.925 117.472 36.75 117.622 36.6C117.772 36.45 117.955 36.375 118.172 36.375H123.322C123.522 36.375 123.697 36.45 123.847 36.6C123.997 36.75 124.072 36.925 124.072 37.125V49.825C124.072 52.2417 123.147 53.95 121.297 54.95C119.597 55.85 117.13 56.3 113.897 56.3C110.564 56.3 108.089 55.85 106.472 54.95C104.689 53.95 103.797 52.1583 103.797 49.575V37.125C103.797 36.925 103.872 36.75 104.022 36.6C104.172 36.45 104.355 36.375 104.572 36.375H109.697C109.914 36.375 110.097 36.45 110.247 36.6C110.397 36.75 110.472 36.925 110.472 37.125V47.425C110.472 48.575 110.739 49.3917 111.272 49.875C111.822 50.3583 112.73 50.6 113.997 50.6C115.197 50.6 116.064 50.35 116.597 49.85C117.13 49.3333 117.397 48.5 117.397 47.35ZM142.334 49.65C142.334 50.7333 142.125 51.6917 141.709 52.525C141.309 53.3417 140.725 54.0333 139.959 54.6C139.209 55.15 138.284 55.575 137.184 55.875C136.1 56.1583 134.875 56.3 133.509 56.3C132.775 56.3 132.042 56.2667 131.309 56.2C130.592 56.15 129.875 56.0667 129.159 55.95C128.992 55.9167 128.842 55.8917 128.709 55.875C128.592 55.8583 128.467 55.8333 128.334 55.8V55.825C127.85 55.7417 127.434 55.6667 127.084 55.6C126.75 55.5167 126.492 55.4583 126.309 55.425C126.159 55.3917 126.025 55.3083 125.909 55.175C125.792 55.0417 125.725 54.9 125.709 54.75L125.309 50C125.275 49.6833 125.375 49.45 125.609 49.3C125.842 49.1333 126.1 49.1167 126.384 49.25C127.2 49.65 128.334 50.1083 129.784 50.625C131.284 51.125 132.642 51.375 133.859 51.375C134.609 51.375 135.209 51.2833 135.659 51.1C136.125 50.9167 136.359 50.65 136.359 50.3C136.359 50.1167 136.225 49.9333 135.959 49.75C135.525 49.4833 134.542 49.2 133.009 48.9C130.125 48.3167 128.125 47.5583 127.009 46.625C125.792 45.625 125.184 44.225 125.184 42.425C125.184 40.325 125.925 38.7333 127.409 37.65C128.909 36.5667 130.992 36.025 133.659 36.025C134.825 36.025 136.067 36.1417 137.384 36.375C138.017 36.4917 138.567 36.6 139.034 36.7C139.517 36.8 139.917 36.9 140.234 37C140.367 37.0333 140.484 37.1167 140.584 37.25C140.7 37.3833 140.767 37.5167 140.784 37.65L141.284 42.025C141.317 42.3417 141.217 42.5917 140.984 42.775C140.75 42.9417 140.492 42.95 140.209 42.8C139.692 42.55 139.15 42.3167 138.584 42.1C138.017 41.8833 137.425 41.6833 136.809 41.5C135.575 41.15 134.467 40.975 133.484 40.975C132.734 40.975 132.15 41.0333 131.734 41.15C131.334 41.2667 131.134 41.4667 131.134 41.75C131.134 42.0167 131.342 42.225 131.759 42.375C132.142 42.5083 132.609 42.6583 133.159 42.825C133.709 42.975 134.359 43.1167 135.109 43.25C137.809 43.7833 139.659 44.55 140.659 45.55C141.775 46.6167 142.334 47.9833 142.334 49.65Z" fill="black"/>
</svg>
