<svg width="164" height="66" viewBox="0 0 164 66" fill="none" xmlns="http://www.w3.org/2000/svg">
<path d="M1.12 26.616C0.8 26.616 0.597333 26.36 0.512 25.848C0.512 25.4427 0.501333 25.048 0.48 24.664L0.416 22.904C0.352 21.1973 0.32 20.2907 0.32 20.184V16.312C0.32 14.4133 0.341333 12.1413 0.384 9.496L0.48 3.672C0.501333 2.584 0.512 1.76267 0.512 1.208C0.533333 1.05867 0.704 0.951999 1.024 0.887999C2.47467 0.781332 3.56267 0.727999 4.288 0.727999C4.62933 0.727999 5.71733 0.706666 7.552 0.664C8.896 0.621332 9.99467 0.599998 10.848 0.599998H24.32C26.9227 0.599998 29.088 1.37867 30.816 2.936C32.6293 4.55733 33.536 6.648 33.536 9.208C33.536 11.1067 33.0987 12.5253 32.224 13.464C31.8187 13.912 30.5813 14.7653 28.512 16.024C28.2347 16.1947 28.0427 16.3867 27.936 16.6C28 16.8347 28.128 17.1013 28.32 17.4L33.312 25.4V26.424H22.528C21.824 25.72 20.9707 24.6 19.968 23.064C19.2213 21.848 18.4747 20.632 17.728 19.416C17.6427 19.288 17.4507 18.9253 17.152 18.328C16.9387 17.88 16.7253 17.5493 16.512 17.336C16.32 17.1227 16.128 17.016 15.936 17.016H11.328C11.136 17.1867 10.9973 17.3147 10.912 17.4C10.784 17.592 10.688 17.7307 10.624 17.816V26.2L10.336 26.424C8.13867 26.552 6.69867 26.616 6.016 26.616H1.12ZM10.912 10.008C11.3173 10.2853 11.8507 10.424 12.512 10.424C13.408 10.424 14.7413 10.392 16.512 10.328C18.2827 10.2427 19.616 10.2 20.512 10.2C20.96 10.2 21.344 10.072 21.664 9.816C21.984 9.56 22.144 9.208 22.144 8.76C22.144 7.736 21.472 7.224 20.128 7.224H11.328C10.9227 7.224 10.72 7.71467 10.72 8.696C10.72 9.05867 10.784 9.496 10.912 10.008ZM35.5077 26.424C35.3157 26.168 35.1877 25.9653 35.1237 25.816V12.984C35.1237 11.704 35.1557 9.784 35.2197 7.224C35.2837 4.64267 35.3157 2.712 35.3157 1.432C35.4224 1.15467 35.5611 0.951999 35.7317 0.823999H37.6197C37.1931 0.823999 39.6891 0.898666 45.1077 1.048C45.2784 1.15466 45.4171 1.34667 45.5237 1.624V13.944C45.5237 16.504 45.4597 20.6 45.3317 26.232L44.9157 26.616C44.7664 26.616 44.5317 26.616 44.2117 26.616C43.8917 26.6373 43.6571 26.648 43.5077 26.648H41.4597C39.2411 26.648 37.2571 26.5733 35.5077 26.424ZM47.083 19.736C47.083 19.416 47.2963 19.1707 47.723 19H60.523C60.779 19 61.0883 19.16 61.451 19.48C61.899 19.8853 62.187 20.12 62.315 20.184C62.9337 20.4613 63.979 20.6 65.451 20.6C66.091 20.6 66.667 20.4933 67.179 20.28C67.8403 19.9813 68.171 19.5547 68.171 19C68.171 18.2107 67.4243 17.7413 65.931 17.592C63.9257 17.4213 61.9203 17.2613 59.915 17.112C57.2057 16.8347 54.987 16.44 53.259 15.928C50.955 15.2453 49.3123 14.2853 48.331 13.048C47.691 12.28 47.3497 11.5973 47.307 11C47.2857 10.68 47.275 10.2213 47.275 9.624C47.275 8.00267 47.5523 6.69067 48.107 5.688C50.1123 2.01867 55.4563 0.183998 64.139 0.183998C71.4777 0.183998 76.2777 1.90133 78.539 5.336C79.2003 6.38133 79.531 7.17067 79.531 7.704C79.531 7.832 79.3283 7.992 78.923 8.184H74.955C74.763 8.184 72.6297 8.13067 68.555 8.024C67.851 8.00267 67.307 7.992 66.923 7.992C66.5603 7.90667 65.9417 7.58667 65.067 7.032C64.3843 6.584 63.499 6.36 62.411 6.36C60.3203 6.36 59.275 6.84 59.275 7.8C59.275 8.46133 59.9577 8.92 61.323 9.176C64.779 9.66667 67.4243 9.99733 69.259 10.168C72.395 10.5307 74.5177 10.936 75.627 11.384C78.763 12.664 80.331 14.9253 80.331 18.168C80.331 21.2613 79.019 23.512 76.395 24.92C74.7097 25.816 72.0217 26.4773 68.331 26.904C66.475 27.1173 64.8323 27.224 63.403 27.224C59.499 27.224 56.6297 26.9893 54.795 26.52C51.7443 25.7733 49.451 24.1947 47.915 21.784C47.3603 20.9307 47.083 20.248 47.083 19.736ZM82.3027 26.424C82.1107 26.168 81.9827 25.9653 81.9187 25.816V12.984C81.9187 11.704 81.9507 9.784 82.0147 7.224C82.0787 4.64267 82.1107 2.712 82.1107 1.432C82.2174 1.15467 82.3561 0.951999 82.5267 0.823999H84.4147C83.9881 0.823999 86.4841 0.898666 91.9027 1.048C92.0734 1.15466 92.2121 1.34667 92.3187 1.624V13.944C92.3187 16.504 92.2547 20.6 92.1267 26.232L91.7107 26.616C91.5614 26.616 91.3267 26.616 91.0067 26.616C90.6867 26.6373 90.4521 26.648 90.3027 26.648H88.2547C86.0361 26.648 84.0521 26.5733 82.3027 26.424ZM94.518 26.424C94.1127 26.1253 93.91 25.8587 93.91 25.624V13.368L93.942 12.376C93.9847 8.10933 94.0167 5.66667 94.038 5.048C94.0593 3.576 94.0807 2.36 94.102 1.4C94.23 0.866666 94.6993 0.599998 95.51 0.599998C96.598 0.599998 98.23 0.642665 100.406 0.727999C102.582 0.791999 104.214 0.823999 105.302 0.823999C105.643 1.05867 107.126 2.69067 109.75 5.72C112.31 8.64267 113.686 10.264 113.878 10.584C114.07 10.8827 114.209 11.096 114.294 11.224C115.126 12.184 115.563 12.6853 115.606 12.728L115.734 12.792C115.99 12.728 116.214 12.696 116.406 12.696V1.624C116.406 1.41067 116.641 1.06933 117.11 0.599998H121.206C121.718 0.599998 122.497 0.642665 123.542 0.727999C124.609 0.791999 125.398 0.823999 125.91 0.823999C126.315 0.823999 126.518 1.144 126.518 1.784V14.2C126.518 15.224 126.497 16.5467 126.454 18.168C126.411 20.3653 126.39 21.688 126.39 22.136C126.369 23.6507 126.347 24.8133 126.326 25.624C126.241 26.3067 125.718 26.648 124.758 26.648C121.622 26.648 118.603 26.5733 115.702 26.424C115.19 26.1893 114.529 25.5813 113.718 24.6L104.726 13.816C104.641 13.7947 104.577 13.784 104.534 13.784C104.193 13.784 104.022 13.8587 104.022 14.008V25.816C103.745 26.1573 103.574 26.36 103.51 26.424C100.118 26.552 98.102 26.616 97.462 26.616C96.5233 26.616 95.542 26.552 94.518 26.424ZM128.12 13.336C128.12 12.3333 128.387 11.0107 128.92 9.368C129.645 7.064 130.787 5.29333 132.344 4.056C135.779 1.34667 140.579 -0.00800133 146.744 -0.00800133C149.965 -0.00800133 152.909 0.461332 155.576 1.4C158.861 2.53067 161.229 4.23733 162.68 6.52C163.384 7.672 163.736 8.632 163.736 9.4C163.736 9.72 163.533 9.912 163.128 9.976C163 9.99733 162.264 10.008 160.92 10.008C160.387 10.008 159.587 10.008 158.52 10.008C157.475 10.0293 156.685 10.04 156.152 10.04C154.232 10.04 152.76 9.95467 151.736 9.784C150.797 8.73867 149.987 8.03467 149.304 7.672C148.472 7.20267 147.427 6.968 146.168 6.968C144.184 6.968 142.573 7.65067 141.336 9.016C140.12 10.36 139.512 12.0453 139.512 14.072C139.512 16.184 140.227 17.8267 141.656 19C143 20.0667 144.749 20.6 146.904 20.6C147.992 20.6 149.059 20.472 150.104 20.216C151.597 19.8533 152.344 19.3093 152.344 18.584C152.344 18.264 152.205 18.104 151.928 18.104H148.728C148.664 18.0613 148.579 17.912 148.472 17.656C148.365 17.4 148.312 17.24 148.312 17.176V12.984C148.653 12.4933 148.856 12.2267 148.92 12.184H162.936C163.192 12.184 163.416 12.2907 163.608 12.504C163.821 12.696 163.928 12.92 163.928 13.176L163.736 25.976C163.736 26.3813 163.469 26.584 162.936 26.584H159.32C158.979 26.584 158.669 26.2533 158.392 25.592C158.136 24.9093 157.848 24.568 157.528 24.568C157.485 24.568 157.027 24.7813 156.152 25.208C155.277 25.6133 154.765 25.848 154.616 25.912C152.269 26.7867 149.368 27.224 145.912 27.224C140.451 27.224 136.28 26.3067 133.4 24.472C129.88 22.2107 128.12 18.4987 128.12 13.336ZM0.288 52.232L0.32 50.792C0.576 49.1493 0.970667 47.688 1.504 46.408C3.808 40.9253 9.32267 38.184 18.048 38.184C20.6293 38.184 23.0613 38.44 25.344 38.952C28.1387 39.592 30.4 40.4773 32.128 41.608C32.832 42.0773 33.5573 42.984 34.304 44.328C34.9867 45.5867 35.328 46.6747 35.328 47.592V48.2L35.232 48.328L24.32 48.392C24.0213 48.392 23.6907 48.1147 23.328 47.56C22.88 46.8773 22.6133 46.4933 22.528 46.408C21.5467 45.576 20.128 45.16 18.272 45.16C15.3707 45.16 13.3867 46.2373 12.32 48.392C12.0427 49.096 11.84 49.6293 11.712 49.992C11.712 52.04 11.8613 53.48 12.16 54.312C13.1413 57.0427 15.1573 58.408 18.208 58.408C19.552 58.408 20.704 58.088 21.664 57.448C22.2827 57.0427 23.168 56.2213 24.32 54.984L24.704 54.792H35.104L35.52 54.984C35.5413 55.3893 35.552 55.5813 35.552 55.56C35.552 59.08 33.4507 61.6827 29.248 63.368C26.1973 64.6053 22.592 65.224 18.432 65.224C6.656 65.224 0.608 60.8933 0.288 52.232ZM36.5478 64.616C36.3558 64.424 36.2278 64.2853 36.1638 64.2V64.104C36.1638 63.8053 36.2918 63.3787 36.5478 62.824L47.1718 39.624C47.3638 39.4107 47.5558 39.208 47.7478 39.016C49.9238 38.8667 52.3238 38.792 54.9478 38.792L58.9478 38.824C59.4384 38.824 59.7798 39.016 59.9718 39.4C60.5691 40.552 61.3158 42.216 62.2118 44.392C63.1504 46.76 63.8651 48.4347 64.3558 49.416L70.5638 64.2C70.5638 64.6267 70.2331 64.84 69.5718 64.84C69.5291 64.84 67.2038 64.776 62.5958 64.648C61.6358 64.648 60.8891 64.6373 60.3558 64.616C60.0144 64.552 59.6838 64.264 59.3638 63.752C58.8944 63.0267 58.6491 62.6427 58.6278 62.6C58.3718 62.3227 57.2518 62.184 55.2678 62.184C54.4358 62.184 53.1771 62.2267 51.4918 62.312C49.8278 62.376 48.5798 62.408 47.7478 62.408C47.3638 62.6213 46.9691 63.2933 46.5638 64.424C46.2224 64.7227 45.6464 64.872 44.8358 64.872C43.9611 64.872 41.1984 64.7867 36.5478 64.616ZM50.5318 54.952C50.5318 55.2933 50.6384 55.464 50.8518 55.464C50.9158 55.464 51.0118 55.4533 51.1398 55.432C51.2891 55.4107 51.4064 55.4 51.4918 55.4C53.9024 55.4 54.6064 55.4107 53.6038 55.432C54.7771 55.4107 55.3638 55.24 55.3638 54.92C55.3638 54.5147 55.0118 53.4907 54.3078 51.848C53.6038 50.2053 53.1238 49.384 52.8678 49.384C52.5264 49.384 52.0358 50.216 51.3958 51.88C50.8198 53.4373 50.5318 54.4613 50.5318 54.952ZM71.195 64.2V52.424L71.387 52.008V41.8C71.387 40.4347 71.4617 39.5707 71.611 39.208C71.6963 38.9947 71.963 38.8667 72.411 38.824C73.819 38.76 74.8857 38.7387 75.611 38.76C79.259 38.6533 81.851 38.6 83.387 38.6C83.8137 38.6 84.443 38.6427 85.275 38.728C86.1283 38.792 86.7683 38.824 87.195 38.824C87.4937 38.824 87.7603 39.1547 87.995 39.816L91.003 48.2C91.259 48.7333 91.4617 49.1387 91.611 49.416C91.995 49.416 92.6777 48.104 93.659 45.48C94.235 43.8587 94.811 42.2373 95.387 40.616C95.5577 40.168 95.8243 39.6347 96.187 39.016L96.603 38.824C101.232 38.6747 104.155 38.6 105.371 38.6H111.195C112.006 38.6 112.411 39.1333 112.411 40.2V50.824C112.411 50.9307 112.368 51.1013 112.283 51.336C112.219 51.5493 112.187 51.7093 112.187 51.816C112.187 53.16 112.155 55.1973 112.091 57.928C112.027 60.6373 111.995 62.664 111.995 64.008C111.846 64.2853 111.579 64.424 111.195 64.424H102.587L102.203 64.008C102.054 61.704 101.979 59.0693 101.979 56.104C101.979 55.6987 101.99 55.0907 102.011 54.28C102.011 53.448 102.011 52.8293 102.011 52.424C102.139 52.2747 102.203 52.0187 102.203 51.656C102.203 51.3573 102.171 50.9093 102.107 50.312C102.043 49.7147 102.011 49.2773 102.011 49C101.691 49.1707 101.392 49.576 101.115 50.216C101.03 50.3867 100.859 50.8987 100.603 51.752C100.432 52.136 100.294 52.424 100.187 52.616L96.187 63.208C95.9523 63.8053 95.6857 64.2107 95.387 64.424C94.427 64.552 93.5097 64.616 92.635 64.616C92.0803 64.616 91.2057 64.584 90.011 64.52C88.6883 64.456 87.9843 64.4133 87.899 64.392C87.4937 64.2427 87.131 63.72 86.811 62.824L82.587 51.4C82.4803 51.0373 82.363 50.6533 82.235 50.248C82.1283 49.8213 81.979 49.48 81.787 49.224H81.595C81.339 51.016 81.211 52.3493 81.211 53.224C81.211 55.7413 81.211 57 81.211 57C81.083 61.2453 81.0083 63.6453 80.987 64.2L80.795 64.424C79.451 64.5733 77.6057 64.648 75.259 64.648C74.8537 64.648 74.2457 64.6373 73.435 64.616C72.6243 64.616 72.0163 64.616 71.611 64.616L71.195 64.2ZM113.039 57.288V54.376C113.039 53.0533 113.071 51.08 113.135 48.456C113.22 45.8107 113.263 43.8373 113.263 42.536C113.263 42.216 113.252 41.8 113.231 41.288C113.231 40.6693 113.231 40.2533 113.231 40.04C113.231 39.1013 113.775 38.632 114.863 38.632H137.423C139.812 38.632 141.839 39.432 143.503 41.032C145.188 42.632 146.031 44.6267 146.031 47.016C146.031 49.4053 145.145 51.336 143.375 52.808C141.711 54.216 139.663 54.92 137.231 54.92H124.431C124.111 54.92 123.748 55.2187 123.343 55.816V64.232C123.023 64.4027 122.788 64.5307 122.639 64.616H121.519C119.407 64.616 116.783 64.552 113.647 64.424L113.231 64.008C113.103 60.8293 113.039 58.5893 113.039 57.288ZM123.599 46.536C123.599 47.4107 123.673 47.912 123.823 48.04H133.423C133.785 48.04 134.084 47.912 134.319 47.656C134.553 47.4 134.671 47.0907 134.671 46.728C134.671 46.3653 134.553 46.056 134.319 45.8C134.084 45.544 133.785 45.416 133.423 45.416H124.431L123.631 45.832C123.609 46.1947 123.599 46.4293 123.599 46.536Z" fill="#D1F04D"/>
</svg>
