<svg width="475" height="440" viewBox="0 0 475 440" fill="none" xmlns="http://www.w3.org/2000/svg">
<g clip-path="url(#clip0_2291_40368)">
<path d="M224.412 440H6.44531C2.88967 440 0 437.112 0 433.559V6.44057C0 2.88754 2.88967 0 6.44531 0H224.412C227.967 0 230.857 2.88754 230.857 6.44057V433.571C230.857 437.124 227.967 440.011 224.412 440.011V440ZM6.44531 0.281986C3.04769 0.281986 0.282194 3.04545 0.282194 6.44057V433.571C0.282194 436.966 3.04769 439.729 6.44531 439.729H224.412C227.809 439.729 230.575 436.966 230.575 433.571V6.44057C230.575 3.04545 227.809 0.281986 224.412 0.281986H6.44531Z" fill="#EEEEF4"/>
<path d="M468.555 440H250.588C247.033 440 244.143 437.112 244.143 433.559V6.44057C244.143 2.88754 247.033 0 250.588 0H468.555C472.111 0 475 2.88754 475 6.44057V433.571C475 437.124 472.111 440.011 468.555 440.011V440ZM250.588 0.281986C247.191 0.281986 244.425 3.04545 244.425 6.44057V433.571C244.425 436.966 247.191 439.729 250.588 439.729H468.555C471.953 439.729 474.718 436.966 474.718 433.571V6.44057C474.718 3.04545 471.953 0.281986 468.555 0.281986H250.588Z" fill="#EEEEF4"/>
<path d="M82.9201 127.785L84.7487 131.485L88.8236 132.083L85.8775 134.959L86.566 139.019L82.9201 137.102L79.2742 139.019L79.9627 134.959L77.0166 132.083L81.0915 131.485L82.9201 127.785Z" fill="#EEEEF4"/>
<path d="M448.248 301.76L450.077 305.459L454.152 306.046L451.206 308.922L451.894 312.983L448.248 311.065L444.602 312.983L445.291 308.922L442.345 306.046L446.42 305.459L448.248 301.76Z" fill="#F9F9FC"/>
<path d="M375.883 409.004L377.711 412.704L381.797 413.29L378.84 416.178L379.54 420.238L375.883 418.321L372.237 420.238L372.936 416.178L369.979 413.29L374.065 412.704L375.883 409.004Z" fill="#F9F9FC"/>
<path d="M210.348 62.2636L211.025 63.6396L212.537 63.854C212.921 63.9104 213.068 64.3728 212.797 64.6435L211.702 65.7151L211.962 67.2265C212.03 67.5987 211.634 67.892 211.296 67.7115L209.941 67.0009L208.587 67.7115C208.248 67.892 207.853 67.5987 207.921 67.2265L208.18 65.7151L207.085 64.6435C206.815 64.3728 206.961 63.9104 207.345 63.854L208.858 63.6396L209.535 62.2636C209.704 61.9252 210.19 61.9252 210.359 62.2636H210.348Z" fill="#EEEEF4"/>
<path d="M23.9077 391.453L24.585 392.829L26.0975 393.043C26.4813 393.1 26.6281 393.562 26.3572 393.833L25.2622 394.905L25.5219 396.416C25.5896 396.788 25.1945 397.081 24.8559 396.901L23.5013 396.19L22.1468 396.901C21.8082 397.081 21.4131 396.788 21.4808 396.416L21.7405 394.905L20.6455 393.833C20.3746 393.562 20.5214 393.1 20.9052 393.043L22.4177 392.829L23.095 391.453C23.2643 391.115 23.7497 391.115 23.919 391.453H23.9077Z" fill="#F9F9FC"/>
<path d="M54.3623 47.7694L55.0396 49.1455L56.5521 49.3598C56.9246 49.4162 57.0826 49.8787 56.8117 50.1494L55.7168 51.2209L55.9764 52.7324C56.0442 53.1046 55.6491 53.3979 55.3105 53.2174L53.9559 52.5068L52.6014 53.2174C52.2628 53.3979 51.8677 53.1046 51.9354 52.7324L52.1951 51.2209L51.1001 50.1494C50.8292 49.8787 50.976 49.4162 51.3598 49.3598L52.8723 49.1455L53.5496 47.7694C53.7189 47.431 54.2043 47.431 54.3736 47.7694H54.3623Z" fill="#EEEEF4"/>
<path d="M52.5333 319.627C52.5333 320.451 51.8673 321.127 51.032 321.127C50.1967 321.127 49.5308 320.462 49.5308 319.627C49.5308 318.792 50.1967 318.127 51.032 318.127C51.8673 318.127 52.5333 318.792 52.5333 319.627Z" fill="#EEEEF4"/>
<path d="M266.482 131.903C266.482 132.726 265.816 133.403 264.98 133.403C264.145 133.403 263.479 132.737 263.479 131.903C263.479 131.068 264.145 130.402 264.98 130.402C265.816 130.402 266.482 131.068 266.482 131.903Z" fill="#EEEEF4"/>
<path d="M188.63 49.0099C188.63 49.8333 187.964 50.5101 187.129 50.5101C186.293 50.5101 185.627 49.8446 185.627 49.0099C185.627 48.1753 186.293 47.5098 187.129 47.5098C187.964 47.5098 188.63 48.1753 188.63 49.0099Z" fill="#F9F9FC"/>
<path d="M191.012 414.62C195.471 413.568 198.233 409.103 197.181 404.647C196.128 400.19 191.66 397.431 187.2 398.482C182.741 399.534 179.979 403.999 181.031 408.455C182.084 412.912 186.552 415.671 191.012 414.62Z" fill="#EEEEF4"/>
<path d="M186.248 401.707C184.487 401.707 182.851 402.271 181.519 403.241C181.078 404.256 180.83 405.373 180.83 406.546C180.83 411.125 184.544 414.825 189.127 414.825C190.673 414.825 192.129 414.396 193.371 413.652C193.371 413.652 193.371 413.648 193.371 413.641C193.992 412.49 194.342 411.182 194.342 409.783C194.342 405.328 190.718 401.707 186.248 401.707Z" fill="#D0D2DA"/>
<path d="M122.009 262.461H53.3232V231.476L122.009 149.881H154.879V233.236H171.912V262.472H154.879V287.817H122.009V262.472V262.461ZM122.009 233.225V190.543L85.7078 233.225H122.009Z" fill="#35BC50"/>
<path d="M183.663 219.452C183.663 193.679 188.302 175.632 197.592 165.334C206.882 155.036 221.026 149.881 240.034 149.881C249.166 149.881 256.661 151.009 262.531 153.253C268.389 155.509 273.175 158.431 276.877 162.04C280.58 165.65 283.492 169.439 285.625 173.421C287.759 177.403 289.463 182.039 290.761 187.34C293.29 197.458 294.554 208.004 294.554 218.979C294.554 243.591 290.389 261.592 282.059 273.007C273.728 284.422 259.381 290.118 239.007 290.118C227.584 290.118 218.362 288.302 211.329 284.659C204.297 281.016 198.518 275.692 194.014 268.653C190.741 263.657 188.201 256.833 186.372 248.159C184.555 239.496 183.641 229.92 183.641 219.43L183.663 219.452ZM221.06 219.543C221.06 236.812 222.583 248.61 225.642 254.926C228.701 261.243 233.126 264.412 238.928 264.412C242.755 264.412 246.073 263.07 248.884 260.386C251.695 257.701 253.76 253.46 255.092 247.662C256.424 241.865 257.079 232.83 257.079 220.558C257.079 202.556 255.555 190.453 252.496 184.249C249.437 178.046 244.854 174.955 238.747 174.955C232.641 174.955 228.013 178.113 225.236 184.441C222.459 190.769 221.071 202.466 221.071 219.543H221.06Z" fill="#35BC50"/>
<path d="M374.923 262.461H306.237V231.476L374.923 149.881H407.793V233.236H424.826V262.472H407.793V287.817H374.923V262.472V262.461ZM374.923 233.225V190.543L338.621 233.225H374.923Z" fill="#35BC50"/>
<g opacity="0.3">
<path d="M182.139 102.271C182.139 103.433 181.191 104.381 180.028 104.381C178.866 104.381 177.917 103.433 177.917 102.271C177.917 101.11 178.866 100.162 180.028 100.162C181.191 100.162 182.139 101.11 182.139 102.271Z" fill="#35BC50"/>
<path d="M37.6672 183.292C38.4901 183.292 39.1572 182.626 39.1572 181.803C39.1572 180.981 38.4901 180.314 37.6672 180.314C36.8443 180.314 36.1772 180.981 36.1772 181.803C36.1772 182.626 36.8443 183.292 37.6672 183.292Z" fill="#35BC50"/>
<path d="M283.842 400.727C285.02 400.727 285.975 399.772 285.975 398.595C285.975 397.417 285.02 396.463 283.842 396.463C282.664 396.463 281.708 397.417 281.708 398.595C281.708 399.772 282.664 400.727 283.842 400.727Z" fill="#35BC50"/>
<path d="M335.134 313.988C335.956 313.988 336.624 313.321 336.624 312.499C336.624 311.676 335.956 311.01 335.134 311.01C334.311 311.01 333.644 311.676 333.644 312.499C333.644 313.321 334.311 313.988 335.134 313.988Z" fill="#35BC50"/>
<path d="M434.104 45.8737C434.104 46.6971 433.439 47.3625 432.615 47.3625C431.79 47.3625 431.125 46.6971 431.125 45.8737C431.125 45.0503 431.79 44.3848 432.615 44.3848C433.439 44.3848 434.104 45.0503 434.104 45.8737Z" fill="#35BC50"/>
<path d="M150.308 15.8033C150.308 16.6267 149.642 17.2922 148.818 17.2922C147.994 17.2922 147.328 16.6267 147.328 15.8033C147.328 14.9799 147.994 14.3145 148.818 14.3145C149.642 14.3145 150.308 14.9799 150.308 15.8033Z" fill="#35BC50"/>
<path d="M268.761 93.97C269.584 93.97 270.251 93.3034 270.251 92.4811C270.251 91.6588 269.584 90.9922 268.761 90.9922C267.939 90.9922 267.271 91.6588 267.271 92.4811C267.271 93.3034 267.939 93.97 268.761 93.97Z" fill="#35BC50"/>
</g>
<path d="M114.729 93.9812C128.387 93.9812 139.46 82.9167 139.46 69.268C139.46 55.6192 128.387 44.5547 114.729 44.5547C101.07 44.5547 89.9971 55.6192 89.9971 69.268C89.9971 82.9167 101.07 93.9812 114.729 93.9812Z" fill="#35BC50"/>
<path opacity="0.7" d="M114.729 93.9812C128.387 93.9812 139.46 82.9167 139.46 69.268C139.46 55.6192 128.387 44.5547 114.729 44.5547C101.07 44.5547 89.9971 55.6192 89.9971 69.268C89.9971 82.9167 101.07 93.9812 114.729 93.9812Z" fill="white"/>
<path opacity="0.2" d="M106.206 50.623C102.741 50.623 99.4449 51.3337 96.4537 52.6195C92.4465 57.0072 89.9971 62.8612 89.9971 69.268C89.9971 82.9161 101.07 93.97 114.717 93.97C118.194 93.97 121.512 93.2594 124.515 91.9622C128.5 87.5632 130.926 81.7318 130.926 75.3363C130.926 61.6769 119.853 50.623 106.195 50.623H106.206Z" fill="#35BC50"/>
<path opacity="0.2" d="M103.746 57.1543C103.746 58.4063 102.73 59.4102 101.488 59.4102C100.246 59.4102 99.2305 58.3951 99.2305 57.1543C99.2305 55.9136 100.246 54.8984 101.488 54.8984C102.73 54.8984 103.746 55.9136 103.746 57.1543Z" fill="#35BC50"/>
<path opacity="0.2" d="M130.339 54.8985C130.339 56.1505 129.323 57.1544 128.082 57.1544C126.84 57.1544 125.824 56.1392 125.824 54.8985C125.824 53.6577 126.84 52.6426 128.082 52.6426C129.323 52.6426 130.339 53.6577 130.339 54.8985Z" fill="#35BC50"/>
<path opacity="0.2" d="M125.813 71.0043C125.813 73.0459 124.154 74.704 122.111 74.704C120.068 74.704 118.408 73.0459 118.408 71.0043C118.408 68.9628 120.068 67.3047 122.111 67.3047C124.154 67.3047 125.813 68.9628 125.813 71.0043Z" fill="#35BC50"/>
<path opacity="0.2" d="M114.062 81.54C114.062 84.2696 111.85 86.4804 109.118 86.4804C106.387 86.4804 104.174 84.2696 104.174 81.54C104.174 78.8104 106.387 76.5996 109.118 76.5996C111.85 76.5996 114.062 78.8104 114.062 81.54Z" fill="#35BC50"/>
<path d="M407.841 367.378C410.595 355.719 403.369 344.037 391.701 341.285C380.034 338.533 368.343 345.754 365.589 357.413C362.835 369.072 370.061 380.754 381.729 383.506C393.396 386.258 405.087 379.037 407.841 367.378Z" fill="#35BC50"/>
<path opacity="0.3" d="M407.841 367.378C410.595 355.719 403.369 344.037 391.701 341.285C380.034 338.533 368.343 345.754 365.589 357.413C362.835 369.072 370.061 380.754 381.729 383.506C393.396 386.258 405.087 379.037 407.841 367.378Z" fill="white"/>
<path opacity="0.4" d="M400.422 345.591C398.447 344.994 396.347 344.678 394.169 344.678C382.181 344.678 372.462 354.389 372.462 366.368C372.462 373.158 375.578 379.204 380.465 383.186C382.441 383.784 384.54 384.099 386.719 384.099C398.706 384.099 408.425 374.388 408.425 362.409C408.425 355.619 405.31 349.562 400.422 345.591Z" fill="#35BC50"/>
<path d="M365.994 368.839C342.821 379.735 360.102 388.138 392.758 376.408C422.986 365.546 434.488 351.852 407.488 356.093C408.877 361.857 371.017 376.599 365.994 368.828V368.839Z" fill="#35BC50"/>
<path opacity="0.2" d="M400.151 149.881C369.798 170.376 330.505 197.401 319.658 262.461H317.344C327.898 198.191 365.757 170.455 396.121 149.881H400.151Z" fill="black"/>
<path d="M243.161 353.396C224.005 353.396 204.997 344.756 195.763 330.623C190.063 321.893 183.437 303.609 203.168 279.211L204.929 280.632C190.977 297.89 188.392 315.204 197.66 329.393C208.936 346.662 235.587 355.347 258.309 349.166C281.595 342.838 295.728 322.592 297.094 293.637C301.755 194.593 354.413 164.093 392.87 141.816C416.755 127.976 434.014 117.971 430.221 96.8788C429.691 93.9574 428.528 91.9271 426.654 90.6977C421.744 87.4605 412.15 89.6938 401.042 92.2881C379.246 97.3638 349.401 104.312 331.623 74.0943L333.564 72.9551C350.507 101.74 378.241 95.2884 400.523 90.0998C412.138 87.3928 422.173 85.0579 427.896 88.8253C430.312 90.4157 431.802 92.931 432.445 96.4953C436.52 119.144 417.76 130.018 393.999 143.779C356.004 165.796 303.957 195.946 299.351 293.762C297.94 323.765 283.198 344.756 258.907 351.354C253.782 352.742 248.466 353.407 243.172 353.407L243.161 353.396Z" fill="#35BC50"/>
<path opacity="0.2" d="M243.161 353.396C224.005 353.396 204.997 344.756 195.763 330.623C190.063 321.893 183.437 303.609 203.168 279.211L204.929 280.632C190.977 297.89 188.392 315.204 197.66 329.393C208.936 346.662 235.587 355.347 258.309 349.166C281.595 342.838 295.728 322.592 297.094 293.637C301.755 194.593 354.413 164.093 392.87 141.816C416.755 127.976 434.014 117.971 430.221 96.8788C429.691 93.9574 428.528 91.9271 426.654 90.6977C421.744 87.4605 412.15 89.6938 401.042 92.2881C379.246 97.3638 349.401 104.312 331.623 74.0943L333.564 72.9551C350.507 101.74 378.241 95.2884 400.523 90.0998C412.138 87.3928 422.173 85.0579 427.896 88.8253C430.312 90.4157 431.802 92.931 432.445 96.4953C436.52 119.144 417.76 130.018 393.999 143.779C356.004 165.796 303.957 195.946 299.351 293.762C297.94 323.765 283.198 344.756 258.907 351.354C253.782 352.742 248.466 353.407 243.172 353.407L243.161 353.396Z" fill="white"/>
<path d="M308.336 47.3744C316.079 47.239 323.665 49.7769 323.665 49.7769C323.665 49.7769 336.036 70.9484 337.549 75.7986C337.029 80.5811 328.947 88.4203 328.947 88.4203L308.325 47.3744H308.336Z" fill="#35BC50"/>
<path opacity="0.3" d="M308.336 47.3744C316.079 47.239 323.665 49.7769 323.665 49.7769C323.665 49.7769 336.036 70.9484 337.549 75.7986C337.029 80.5811 328.947 88.4203 328.947 88.4203L308.325 47.3744H308.336Z" fill="white"/>
<path d="M345.123 150.22C340.45 144.298 335.867 138.275 332.074 131.744C331.126 130.108 330.223 128.45 329.376 126.758C328.891 125.8 328.428 124.83 327.977 123.86C327.582 123.014 326.701 121.762 326.622 120.837C325.268 106.546 330.167 96.022 325.46 84.5508L306.869 91.8147C306.869 91.8147 308.449 112.253 312.061 124.48C314.296 132.071 319.364 138.636 324.252 144.715C325.776 146.622 327.254 148.562 328.778 150.468C330.223 152.273 331.837 153.919 333.282 155.713C335.483 158.431 336.206 161.037 334.535 164.24C334.445 164.409 334.354 164.578 334.253 164.748C333.779 165.582 336.002 166.53 337.391 164.77C339.693 161.86 339.332 162.041 341.296 159.559C342.493 158.048 343.859 156.423 345.044 155.013C346.195 153.637 346.229 151.641 345.112 150.22H345.123Z" fill="#35BC50"/>
<path opacity="0.7" d="M345.123 150.22C340.45 144.298 335.867 138.275 332.074 131.744C331.126 130.108 330.223 128.45 329.376 126.758C328.891 125.8 328.428 124.83 327.977 123.86C327.582 123.014 326.701 121.762 326.622 120.837C325.268 106.546 330.167 96.022 325.46 84.5508L306.869 91.8147C306.869 91.8147 308.449 112.253 312.061 124.48C314.296 132.071 319.364 138.636 324.252 144.715C325.776 146.622 327.254 148.562 328.778 150.468C330.223 152.273 331.837 153.919 333.282 155.713C335.483 158.431 336.206 161.037 334.535 164.24C334.445 164.409 334.354 164.578 334.253 164.748C333.779 165.582 336.002 166.53 337.391 164.77C339.693 161.86 339.332 162.041 341.296 159.559C342.493 158.048 343.859 156.423 345.044 155.013C346.195 153.637 346.229 151.641 345.112 150.22H345.123Z" fill="white"/>
<path opacity="0.3" d="M340.574 144.344C338.079 147.355 333.023 151.247 330.799 152.826C331.284 153.367 331.77 153.92 332.244 154.473C336.838 151.472 340.461 147.592 341.838 146.013C341.409 145.46 340.992 144.908 340.574 144.344Z" fill="#35BC50"/>
<path opacity="0.3" d="M345.112 150.22C345.066 150.164 345.021 150.118 344.976 150.051C344.197 150.863 343.644 152.171 343.554 153.626C343.475 154.63 343.644 155.555 343.983 156.277C344.355 155.837 344.705 155.409 345.055 155.002C346.218 153.626 346.229 151.63 345.112 150.22Z" fill="#35BC50"/>
<path d="M303.923 60.9096C301.981 63.7407 299.69 66.5267 296.721 69.0195C295.254 70.2715 293.572 71.4107 291.732 72.3808C290.806 72.8545 289.824 73.2606 288.82 73.5989L288.063 73.8471L287.815 73.9261C287.635 73.9825 287.454 74.0276 287.273 74.0727C286.935 74.1516 286.585 74.1968 286.291 74.2306C285.072 74.3208 284.18 74.1516 283.458 73.9712C282.013 73.5764 281.054 73.0575 280.139 72.55C279.236 72.0311 278.458 71.501 277.713 70.9596C276.245 69.8429 274.913 68.7149 273.672 67.5193C271.177 65.1394 268.965 62.6692 266.91 59.917C265.973 58.665 266.233 56.8941 267.486 55.9579C268.457 55.236 269.732 55.2247 270.692 55.8338L270.782 55.8902C273.446 57.5821 276.132 59.3643 278.751 60.9547C280.072 61.733 281.37 62.5225 282.645 63.1316C283.266 63.4474 283.887 63.7407 284.44 63.9437C284.982 64.158 285.512 64.2708 285.659 64.2483C285.716 64.2483 285.659 64.1693 285.23 64.1806C285.129 64.1806 284.982 64.2032 284.846 64.2257C284.767 64.237 284.677 64.2596 284.598 64.2934C284.519 64.316 284.632 64.2708 284.632 64.2708L285.004 64.0791C285.501 63.8309 285.975 63.5151 286.461 63.188C287.431 62.5338 288.346 61.7104 289.283 60.7968C291.145 58.9582 292.928 56.6572 294.814 54.266L294.836 54.2321C296.766 51.7845 300.322 51.3672 302.771 53.3072C305.119 55.157 305.582 58.507 303.923 60.9321V60.9096Z" fill="#35BC50"/>
<path opacity="0.7" d="M303.923 60.9096C301.981 63.7407 299.69 66.5267 296.721 69.0195C295.254 70.2715 293.572 71.4107 291.732 72.3808C290.806 72.8545 289.824 73.2606 288.82 73.5989L288.063 73.8471L287.815 73.9261C287.635 73.9825 287.454 74.0276 287.273 74.0727C286.935 74.1516 286.585 74.1968 286.291 74.2306C285.072 74.3208 284.18 74.1516 283.458 73.9712C282.013 73.5764 281.054 73.0575 280.139 72.55C279.236 72.0311 278.458 71.501 277.713 70.9596C276.245 69.8429 274.913 68.7149 273.672 67.5193C271.177 65.1394 268.965 62.6692 266.91 59.917C265.973 58.665 266.233 56.8941 267.486 55.9579C268.457 55.236 269.732 55.2247 270.692 55.8338L270.782 55.8902C273.446 57.5821 276.132 59.3643 278.751 60.9547C280.072 61.733 281.37 62.5225 282.645 63.1316C283.266 63.4474 283.887 63.7407 284.44 63.9437C284.982 64.158 285.512 64.2708 285.659 64.2483C285.716 64.2483 285.659 64.1693 285.23 64.1806C285.129 64.1806 284.982 64.2032 284.846 64.2257C284.767 64.237 284.677 64.2596 284.598 64.2934C284.519 64.316 284.632 64.2708 284.632 64.2708L285.004 64.0791C285.501 63.8309 285.975 63.5151 286.461 63.188C287.431 62.5338 288.346 61.7104 289.283 60.7968C291.145 58.9582 292.928 56.6572 294.814 54.266L294.836 54.2321C296.766 51.7845 300.322 51.3672 302.771 53.3072C305.119 55.157 305.582 58.507 303.923 60.9321V60.9096Z" fill="white"/>
<path d="M262.655 53.5319L263.975 55.754C263.975 55.754 264.991 58.7092 267.012 59.2506L272.486 57.4797L272.215 57.0173C271.516 55.9457 271.595 53.8929 271.832 52.1784C272.08 50.4639 271.188 50.4075 270.533 50.8248C270.15 51.073 269.89 51.8513 269.574 52.6972C269.303 52.325 269.021 51.9641 268.694 51.6482L267.023 49.9789C266.301 49.257 265.138 49.2232 264.382 49.8999L263.027 51.1068C262.339 51.7159 262.181 52.7423 262.655 53.5319Z" fill="#35BC50"/>
<path opacity="0.7" d="M262.655 53.5319L263.975 55.754C263.975 55.754 264.991 58.7092 267.012 59.2506L272.486 57.4797L272.215 57.0173C271.516 55.9457 271.595 53.8929 271.832 52.1784C272.08 50.4639 271.188 50.4075 270.533 50.8248C270.15 51.073 269.89 51.8513 269.574 52.6972C269.303 52.325 269.021 51.9641 268.694 51.6482L267.023 49.9789C266.301 49.257 265.138 49.2232 264.382 49.8999L263.027 51.1068C262.339 51.7159 262.181 52.7423 262.655 53.5319Z" fill="white"/>
<path d="M313.89 45.4237C308.641 46.6983 301.428 49.6873 296.563 52.7215C294.836 53.793 293.978 55.8346 294.384 57.8198C296.552 68.4676 301.507 82.7248 306.857 91.8048L331.815 81.4841C331.984 77.0851 325.922 62.8504 319.759 49.0895C318.653 46.6193 316.531 44.7807 313.89 45.4124V45.4237Z" fill="#35BC50"/>
<path opacity="0.8" d="M313.89 45.4237C308.641 46.6983 301.428 49.6873 296.563 52.7215C294.836 53.793 293.978 55.8346 294.384 57.8198C296.552 68.4676 301.507 82.7248 306.857 91.8048L331.815 81.4841C331.984 77.0851 325.922 62.8504 319.759 49.0895C318.653 46.6193 316.531 44.7807 313.89 45.4124V45.4237Z" fill="white"/>
<path opacity="0.3" d="M323.62 57.8182L318.665 56.1602C319.771 59.059 323.778 62.7248 326.6 64.8792C325.674 62.612 324.67 60.2546 323.62 57.8182Z" fill="#35BC50"/>
<path d="M312.242 34.2561C310.188 30.3308 305.729 28.3569 300.367 28.7968C295.852 29.169 291.856 33.7823 292.33 36.2638C292.804 38.7566 296.597 39.8056 297.286 40.6741L294.159 42.9412C292.601 44.0692 292.296 46.2687 293.482 47.7801C294.802 49.4495 296.529 51.1978 297.545 52.4273C306.192 52.2017 312.592 48.9081 314.895 45.7273C314.071 41.6892 314.285 38.1588 312.231 34.2448L312.242 34.2561Z" fill="#35BC50"/>
<path opacity="0.8" d="M312.242 34.2561C310.188 30.3308 305.729 28.3569 300.367 28.7968C295.852 29.169 291.856 33.7823 292.33 36.2638C292.804 38.7566 296.597 39.8056 297.286 40.6741L294.159 42.9412C292.601 44.0692 292.296 46.2687 293.482 47.7801C294.802 49.4495 296.529 51.1978 297.545 52.4273C306.192 52.2017 312.592 48.9081 314.895 45.7273C314.071 41.6892 314.285 38.1588 312.231 34.2448L312.242 34.2561Z" fill="white"/>
<path d="M308.009 36.6816C309.725 41.0806 307.557 46.0323 303.155 47.7468C298.753 49.4612 293.798 47.2956 292.082 42.8966C290.366 38.4976 292.533 33.5459 296.936 31.8314C301.338 30.117 306.293 32.2826 308.009 36.6816Z" fill="#424244"/>
<path d="M381.289 138.332C381.165 134.621 381.007 134.994 380.894 131.835C380.826 129.918 380.815 127.786 380.804 125.948C380.792 124.154 379.517 122.609 377.756 122.248C376.255 121.943 374.765 121.661 373.264 121.334C371.311 120.917 369.392 120.477 367.473 119.913C365.994 119.484 364.516 119.011 363.071 118.481C361.513 117.917 359.978 117.307 358.454 116.653C356.671 115.886 354.921 115.074 353.171 114.239C351.219 113.303 349.288 112.345 347.369 111.363C339.942 99.0686 339.784 90.9812 331.804 81.4727L314.691 89.2104C314.691 89.2104 327.266 111.499 335.822 120.951C340.755 126.387 348.487 128.846 355.384 130.617C360.362 131.903 365.407 132.884 370.453 133.809C372.417 134.17 374.55 134.306 376.244 135.479C377.575 136.404 378.264 137.847 378.659 139.37C378.738 139.686 378.806 140.002 378.862 140.318C379.043 141.265 381.346 140.554 381.267 138.31L381.289 138.332Z" fill="#35BC50"/>
<path opacity="0.8" d="M381.289 138.332C381.165 134.621 381.007 134.994 380.894 131.835C380.826 129.918 380.815 127.786 380.804 125.948C380.792 124.154 379.517 122.609 377.756 122.248C376.255 121.943 374.765 121.661 373.264 121.334C371.311 120.917 369.392 120.477 367.473 119.913C365.994 119.484 364.516 119.011 363.071 118.481C361.513 117.917 359.978 117.307 358.454 116.653C356.671 115.886 354.921 115.074 353.171 114.239C351.219 113.303 349.288 112.345 347.369 111.363C339.942 99.0686 339.784 90.9812 331.804 81.4727L314.691 89.2104C314.691 89.2104 327.266 111.499 335.822 120.951C340.755 126.387 348.487 128.846 355.384 130.617C360.362 131.903 365.407 132.884 370.453 133.809C372.417 134.17 374.55 134.306 376.244 135.479C377.575 136.404 378.264 137.847 378.659 139.37C378.738 139.686 378.806 140.002 378.862 140.318C379.043 141.265 381.346 140.554 381.267 138.31L381.289 138.332Z" fill="white"/>
<path opacity="0.3" d="M372.62 121.199C371.943 121.052 371.265 120.906 370.577 120.736C370.633 124.628 368.805 131.362 368.127 133.392C368.839 133.527 369.561 133.663 370.272 133.798C372.259 128.44 372.564 122.778 372.609 121.188L372.62 121.199Z" fill="#35BC50"/>
<path opacity="0.3" d="M380.815 125.947C380.804 124.142 379.54 122.608 377.779 122.248C377.429 122.18 377.056 122.101 376.707 122.033C376.786 123.093 377.44 124.323 378.546 125.304C379.269 125.958 380.093 126.387 380.838 126.59C380.838 126.365 380.838 126.15 380.827 125.947H380.815Z" fill="#35BC50"/>
<path d="M306.406 36.7608C306.857 38.4753 304.95 40.2688 303.415 38.7911C302.173 37.5955 300.299 35.5765 298.764 34.629C297.195 33.6477 299.283 31.9332 301.755 32.5987C304.058 33.2191 305.943 35.0577 306.406 36.7608Z" fill="white"/>
<path d="M306.541 91.263C305.751 91.5563 307.196 92.9098 307.196 92.9098C307.196 92.9098 322.965 87.507 332.582 81.9462C332.661 80.7844 331.815 80.1641 331.815 80.1641C331.815 80.1641 320.109 86.255 306.53 91.263H306.541Z" fill="#35BC50"/>
<path opacity="0.5" d="M306.541 91.263C305.751 91.5563 307.196 92.9098 307.196 92.9098C307.196 92.9098 322.965 87.507 332.582 81.9462C332.661 80.7844 331.815 80.1641 331.815 80.1641C331.815 80.1641 320.109 86.255 306.53 91.263H306.541Z" fill="white"/>
<path d="M318.168 44.6786C321.283 46.2464 324.207 47.9158 327.141 49.7543C328.597 50.6679 330.054 51.6154 331.476 52.6306C332.921 53.6232 334.332 54.6721 335.765 55.8565L336.296 56.2964L336.962 56.8942C337.436 57.3115 337.786 57.695 338.136 58.0785C338.497 58.4733 338.802 58.8568 339.095 59.2403C339.4 59.6238 339.693 60.0073 339.964 60.3795C341.082 61.8797 341.996 63.4024 342.888 64.9139C344.626 67.9819 346.127 71.0386 347.369 74.3322C347.922 75.7986 347.177 77.4341 345.71 77.9868C344.603 78.4041 343.407 78.0883 342.639 77.2762L342.583 77.2198C340.314 74.8172 338.136 72.2906 335.946 69.9332C333.801 67.5871 331.532 65.1846 329.692 64.1356C327.13 62.5339 324.274 60.9548 321.441 59.387L312.907 54.6496H312.885C310.153 53.1269 309.171 49.6979 310.684 46.9683C312.162 44.3176 315.47 43.3137 318.168 44.6673V44.6786Z" fill="#35BC50"/>
<path opacity="0.8" d="M318.168 44.6786C321.283 46.2464 324.207 47.9158 327.141 49.7543C328.597 50.6679 330.054 51.6154 331.476 52.6306C332.921 53.6232 334.332 54.6721 335.765 55.8565L336.296 56.2964L336.962 56.8942C337.436 57.3115 337.786 57.695 338.136 58.0785C338.497 58.4733 338.802 58.8568 339.095 59.2403C339.4 59.6238 339.693 60.0073 339.964 60.3795C341.082 61.8797 341.996 63.4024 342.888 64.9139C344.626 67.9819 346.127 71.0386 347.369 74.3322C347.922 75.7986 347.177 77.4341 345.71 77.9868C344.603 78.4041 343.407 78.0883 342.639 77.2762L342.583 77.2198C340.314 74.8172 338.136 72.2906 335.946 69.9332C333.801 67.5871 331.532 65.1846 329.692 64.1356C327.13 62.5339 324.274 60.9548 321.441 59.387L312.907 54.6496H312.885C310.153 53.1269 309.171 49.6979 310.684 46.9683C312.162 44.3176 315.47 43.3137 318.168 44.6673V44.6786Z" fill="white"/>
<path d="M350.078 79.8473L349.119 77.4448C349.119 77.4448 348.588 74.3768 346.669 73.5195L340.98 74.4106L341.183 74.9069C341.714 76.0687 341.307 78.099 340.8 79.7458C340.292 81.4039 341.161 81.5956 341.872 81.2798C342.289 81.0993 342.673 80.3662 343.113 79.5766C343.317 79.9827 343.554 80.3887 343.825 80.7609L345.213 82.6672C345.811 83.4906 346.951 83.7049 347.809 83.1522L349.333 82.1709C350.112 81.6746 350.428 80.6933 350.089 79.836L350.078 79.8473Z" fill="#35BC50"/>
<path opacity="0.8" d="M350.078 79.8473L349.119 77.4448C349.119 77.4448 348.588 74.3768 346.669 73.5195L340.98 74.4106L341.183 74.9069C341.714 76.0687 341.307 78.099 340.8 79.7458C340.292 81.4039 341.161 81.5956 341.872 81.2798C342.289 81.0993 342.673 80.3662 343.113 79.5766C343.317 79.9827 343.554 80.3887 343.825 80.7609L345.213 82.6672C345.811 83.4906 346.951 83.7049 347.809 83.1522L349.333 82.1709C350.112 81.6746 350.428 80.6933 350.089 79.836L350.078 79.8473Z" fill="white"/>
<path opacity="0.3" d="M313.393 57.6387L312.016 57.7515L303.561 78.1447C304.058 78.1785 304.509 78.1447 304.938 78.0319C304.938 78.0319 315.955 73.9262 319.285 72.426C317.039 67.7789 313.381 57.6387 313.381 57.6387H313.393Z" fill="#35BC50"/>
<path d="M297.962 62.9954C298.437 66.6725 301.191 74.4779 303.561 78.155C307.693 76.7338 314.578 74.0492 317.908 72.5491C315.662 67.9019 313.303 61.4952 312.004 57.7617C308.449 57.9986 300.705 60.92 297.951 63.0067L297.962 62.9954Z" fill="white"/>
<path opacity="0.3" d="M306.361 67.4061C305.898 68.9401 304.272 69.8199 302.737 69.3574C301.202 68.895 300.322 67.2707 300.784 65.7367C301.247 64.2027 302.873 63.3229 304.408 63.7854C305.943 64.2478 306.823 65.8721 306.361 67.4061Z" fill="#35BC50"/>
<path opacity="0.6" d="M308.516 63.5258C308.37 64.0334 307.839 64.3153 307.331 64.1687C306.823 64.0221 306.541 63.4919 306.688 62.9844C306.834 62.4768 307.365 62.1948 307.873 62.3414C308.381 62.4881 308.663 63.0182 308.516 63.5258Z" fill="#35BC50"/>
<path opacity="0.6" d="M311.034 62.5453C310.887 63.0529 310.357 63.3349 309.849 63.1882C309.341 63.0416 309.058 62.5115 309.205 62.0039C309.352 61.4963 309.894 61.2143 310.39 61.361C310.898 61.5076 311.181 62.0377 311.034 62.5453Z" fill="#35BC50"/>
<path opacity="0.5" d="M314.589 71.3209L304.148 75.4492L303.516 73.3963L313.957 69.2793L314.589 71.3209Z" fill="#35BC50"/>
<path opacity="0.2" d="M256.977 228.092C256.751 236.597 256.119 243.127 255.081 247.662C253.749 253.459 251.683 257.701 248.872 260.385C246.073 263.07 242.754 264.412 238.928 264.412C233.126 264.412 228.69 261.254 225.642 254.926C225.146 253.899 224.694 252.726 224.276 251.418C217.831 256.956 211.826 263.002 206.306 269.499L200.312 276.56C203.552 279.842 207.232 282.538 211.341 284.67C218.373 288.302 227.595 290.129 239.018 290.129C241.027 290.129 242.969 290.073 244.854 289.96C251.762 279.741 257.485 268.754 261.898 257.227L278.661 213.553L256.977 228.092Z" fill="black"/>
<path d="M105.868 287.637C112.189 293.953 125.622 307.376 125.622 307.376L180.943 255.299C161.901 248.069 124.798 268.721 105.868 287.637Z" fill="#616164"/>
<path d="M174.769 356.475C168.448 350.158 155.015 336.736 155.015 336.736L207.131 281.455C214.366 300.484 193.698 337.559 174.769 356.475Z" fill="#616164"/>
<path d="M250.363 232.074L271.911 190.555L230.361 212.087C217.007 219.001 204.692 227.743 193.743 238.041L122.913 304.669L157.713 339.443L224.39 268.665C234.695 257.724 243.432 245.407 250.363 232.074Z" fill="#35BC50"/>
<path opacity="0.6" d="M250.363 232.074L271.911 190.555L230.361 212.087C217.007 219.001 204.692 227.743 193.743 238.041L122.913 304.669L157.713 339.443L224.39 268.665C234.695 257.724 243.432 245.407 250.363 232.074Z" fill="white"/>
<path d="M206.114 270.853C214.156 270.853 220.676 264.338 220.676 256.302C220.676 248.266 214.156 241.752 206.114 241.752C198.073 241.752 191.553 248.266 191.553 256.302C191.553 264.338 198.073 270.853 206.114 270.853Z" fill="white"/>
<path d="M206.114 265.652C211.282 265.652 215.472 261.466 215.472 256.302C215.472 251.138 211.282 246.951 206.114 246.951C200.946 246.951 196.757 251.138 196.757 256.302C196.757 261.466 200.946 265.652 206.114 265.652Z" fill="#35BC50"/>
<path opacity="0.3" d="M169.486 326.945L135.419 292.904L163.311 266.668L195.741 299.074L169.486 326.945Z" fill="#35BC50"/>
<path d="M113.589 318.824C88.0786 320.9 79.624 337.221 76.7344 358.911C75.267 369.977 74.6123 381.166 65.3112 387.651C62.7263 389.445 64.0131 393.46 67.1511 393.359C101.398 392.287 117.37 375.537 119.38 368.521C118.691 372.954 117.686 376.462 116.569 379.203C115.417 382.034 118.533 384.651 121.118 383.027C130.735 377.004 142.79 365.927 143.592 347.97C136.48 337.988 113.589 318.824 113.589 318.824Z" fill="#35BC50"/>
<path opacity="0.2" d="M113.589 318.824C88.0786 320.9 79.624 337.221 76.7344 358.911C75.267 369.977 74.6123 381.166 65.3112 387.651C62.7263 389.445 64.0131 393.46 67.1511 393.359C101.398 392.287 117.37 375.537 119.38 368.521C118.691 372.954 117.686 376.462 116.569 379.203C115.417 382.034 118.533 384.651 121.118 383.027C130.735 377.004 142.79 365.927 143.592 347.97C136.48 337.988 113.589 318.824 113.589 318.824Z" fill="white"/>
<path d="M147.509 355.697L106.658 314.866L128.421 310.162L152.216 333.939L147.509 355.697Z" fill="#35BC50"/>
</g>
<defs>
<clipPath id="clip0_2291_40368">
<rect width="475" height="440" fill="white"/>
</clipPath>
</defs>
</svg>
